<mxfile host="app.diagrams.net" modified="2022-02-17T15:48:04.057Z" agent="5.0 (Windows NT 10.0; Win64; x64) AppleWebKit/537.36 (KHTML, like Gecko) Chrome/98.0.4758.82 Safari/537.36" etag="e0LmP3tF4gn6w_94IsPI" version="16.2.7" type="github">
  <diagram id="gWc2jN6V5Igg9n6WPG1Q" name="Page-1">
    <mxGraphModel dx="754" dy="491" grid="1" gridSize="10" guides="1" tooltips="1" connect="1" arrows="1" fold="1" page="1" pageScale="1" pageWidth="827" pageHeight="1169" math="0" shadow="0">
      <root>
        <mxCell id="0" />
        <mxCell id="1" parent="0" />
        <mxCell id="sAEdU9W-AbyJChdEUiqo-181" value="" style="rounded=0;whiteSpace=wrap;html=1;shadow=0;dashed=1;dashPattern=1 1;fontSize=11;strokeColor=#3399FF;fillColor=default;" vertex="1" parent="1">
          <mxGeometry x="418.25" y="1497" width="250" height="40" as="geometry" />
        </mxCell>
        <mxCell id="sAEdU9W-AbyJChdEUiqo-140" value="" style="rounded=0;whiteSpace=wrap;html=1;shadow=0;dashed=1;fontSize=11;strokeColor=#3399FF;" vertex="1" parent="1">
          <mxGeometry x="237" y="831" width="110" height="120" as="geometry" />
        </mxCell>
        <mxCell id="sAEdU9W-AbyJChdEUiqo-1" value="时延不敏感，流量波动大" style="rounded=0;whiteSpace=wrap;html=1;fontSize=10;fillColor=#dae8fc;strokeColor=#6c8ebf;" vertex="1" parent="1">
          <mxGeometry x="137" y="290" width="140" height="40" as="geometry" />
        </mxCell>
        <mxCell id="sAEdU9W-AbyJChdEUiqo-2" value="" style="shape=table;startSize=0;container=1;collapsible=0;childLayout=tableLayout;fillColor=#dae8fc;strokeColor=#6c8ebf;" vertex="1" parent="1">
          <mxGeometry x="137" y="330" width="562" height="280" as="geometry" />
        </mxCell>
        <mxCell id="sAEdU9W-AbyJChdEUiqo-9" value="" style="shape=tableRow;horizontal=0;startSize=0;swimlaneHead=0;swimlaneBody=0;top=0;left=0;bottom=0;right=0;collapsible=0;dropTarget=0;fillColor=none;points=[[0,0.5],[1,0.5]];portConstraint=eastwest;fontSize=15;" vertex="1" parent="sAEdU9W-AbyJChdEUiqo-2">
          <mxGeometry width="562" height="40" as="geometry" />
        </mxCell>
        <mxCell id="sAEdU9W-AbyJChdEUiqo-11" value="&lt;span style=&quot;font-size: 9px;&quot;&gt;多种语言&lt;/span&gt;" style="shape=partialRectangle;html=1;whiteSpace=wrap;connectable=0;overflow=hidden;fillColor=none;top=0;left=0;bottom=0;right=0;pointerEvents=1;fontSize=9;" vertex="1" parent="sAEdU9W-AbyJChdEUiqo-9">
          <mxGeometry width="140" height="40" as="geometry">
            <mxRectangle width="140" height="40" as="alternateBounds" />
          </mxGeometry>
        </mxCell>
        <mxCell id="sAEdU9W-AbyJChdEUiqo-12" value="golang, typescript, lua" style="shape=partialRectangle;html=1;whiteSpace=wrap;connectable=0;overflow=hidden;fillColor=none;top=0;left=0;bottom=0;right=0;pointerEvents=1;fontSize=9;" vertex="1" parent="sAEdU9W-AbyJChdEUiqo-9">
          <mxGeometry x="140" width="141" height="40" as="geometry">
            <mxRectangle width="141" height="40" as="alternateBounds" />
          </mxGeometry>
        </mxCell>
        <mxCell id="sAEdU9W-AbyJChdEUiqo-13" value="javascript" style="shape=partialRectangle;html=1;whiteSpace=wrap;connectable=0;overflow=hidden;fillColor=none;top=0;left=0;bottom=0;right=0;pointerEvents=1;fontSize=9;" vertex="1" parent="sAEdU9W-AbyJChdEUiqo-9">
          <mxGeometry x="281" width="140" height="40" as="geometry">
            <mxRectangle width="140" height="40" as="alternateBounds" />
          </mxGeometry>
        </mxCell>
        <mxCell id="sAEdU9W-AbyJChdEUiqo-14" value="golang, javascript, lua, php" style="shape=partialRectangle;html=1;whiteSpace=wrap;connectable=0;overflow=hidden;fillColor=none;top=0;left=0;bottom=0;right=0;pointerEvents=1;fontSize=7;" vertex="1" parent="sAEdU9W-AbyJChdEUiqo-9">
          <mxGeometry x="421" width="141" height="40" as="geometry">
            <mxRectangle width="141" height="40" as="alternateBounds" />
          </mxGeometry>
        </mxCell>
        <mxCell id="sAEdU9W-AbyJChdEUiqo-15" value="" style="shape=tableRow;horizontal=0;startSize=0;swimlaneHead=0;swimlaneBody=0;top=0;left=0;bottom=0;right=0;collapsible=0;dropTarget=0;fillColor=none;points=[[0,0.5],[1,0.5]];portConstraint=eastwest;" vertex="1" parent="sAEdU9W-AbyJChdEUiqo-2">
          <mxGeometry y="40" width="562" height="40" as="geometry" />
        </mxCell>
        <mxCell id="sAEdU9W-AbyJChdEUiqo-17" value="&lt;span style=&quot;font-size: 10px&quot;&gt;不支持，但可通过函数间调用支持&lt;/span&gt;" style="shape=partialRectangle;html=1;whiteSpace=wrap;connectable=0;overflow=hidden;fillColor=none;top=0;left=0;bottom=0;right=0;pointerEvents=1;" vertex="1" parent="sAEdU9W-AbyJChdEUiqo-15">
          <mxGeometry width="140" height="40" as="geometry">
            <mxRectangle width="140" height="40" as="alternateBounds" />
          </mxGeometry>
        </mxCell>
        <mxCell id="sAEdU9W-AbyJChdEUiqo-18" value="支持" style="shape=partialRectangle;html=1;whiteSpace=wrap;connectable=0;overflow=hidden;fillColor=none;top=0;left=0;bottom=0;right=0;pointerEvents=1;" vertex="1" parent="sAEdU9W-AbyJChdEUiqo-15">
          <mxGeometry x="140" width="141" height="40" as="geometry">
            <mxRectangle width="141" height="40" as="alternateBounds" />
          </mxGeometry>
        </mxCell>
        <mxCell id="sAEdU9W-AbyJChdEUiqo-19" value="不支持" style="shape=partialRectangle;html=1;whiteSpace=wrap;connectable=0;overflow=hidden;fillColor=none;top=0;left=0;bottom=0;right=0;pointerEvents=1;" vertex="1" parent="sAEdU9W-AbyJChdEUiqo-15">
          <mxGeometry x="281" width="140" height="40" as="geometry">
            <mxRectangle width="140" height="40" as="alternateBounds" />
          </mxGeometry>
        </mxCell>
        <mxCell id="sAEdU9W-AbyJChdEUiqo-20" value="支持" style="shape=partialRectangle;html=1;whiteSpace=wrap;connectable=0;overflow=hidden;fillColor=none;top=0;left=0;bottom=0;right=0;pointerEvents=1;" vertex="1" parent="sAEdU9W-AbyJChdEUiqo-15">
          <mxGeometry x="421" width="141" height="40" as="geometry">
            <mxRectangle width="141" height="40" as="alternateBounds" />
          </mxGeometry>
        </mxCell>
        <mxCell id="sAEdU9W-AbyJChdEUiqo-206" style="shape=tableRow;horizontal=0;startSize=0;swimlaneHead=0;swimlaneBody=0;top=0;left=0;bottom=0;right=0;collapsible=0;dropTarget=0;fillColor=none;points=[[0,0.5],[1,0.5]];portConstraint=eastwest;" vertex="1" parent="sAEdU9W-AbyJChdEUiqo-2">
          <mxGeometry y="80" width="562" height="40" as="geometry" />
        </mxCell>
        <mxCell id="sAEdU9W-AbyJChdEUiqo-207" value="支持" style="shape=partialRectangle;html=1;whiteSpace=wrap;connectable=0;overflow=hidden;fillColor=none;top=0;left=0;bottom=0;right=0;pointerEvents=1;" vertex="1" parent="sAEdU9W-AbyJChdEUiqo-206">
          <mxGeometry width="140" height="40" as="geometry">
            <mxRectangle width="140" height="40" as="alternateBounds" />
          </mxGeometry>
        </mxCell>
        <mxCell id="sAEdU9W-AbyJChdEUiqo-208" value="不支持" style="shape=partialRectangle;html=1;whiteSpace=wrap;connectable=0;overflow=hidden;fillColor=none;top=0;left=0;bottom=0;right=0;pointerEvents=1;" vertex="1" parent="sAEdU9W-AbyJChdEUiqo-206">
          <mxGeometry x="140" width="141" height="40" as="geometry">
            <mxRectangle width="141" height="40" as="alternateBounds" />
          </mxGeometry>
        </mxCell>
        <mxCell id="sAEdU9W-AbyJChdEUiqo-209" value="支持" style="shape=partialRectangle;html=1;whiteSpace=wrap;connectable=0;overflow=hidden;fillColor=none;top=0;left=0;bottom=0;right=0;pointerEvents=1;" vertex="1" parent="sAEdU9W-AbyJChdEUiqo-206">
          <mxGeometry x="281" width="140" height="40" as="geometry">
            <mxRectangle width="140" height="40" as="alternateBounds" />
          </mxGeometry>
        </mxCell>
        <mxCell id="sAEdU9W-AbyJChdEUiqo-210" value="支持" style="shape=partialRectangle;html=1;whiteSpace=wrap;connectable=0;overflow=hidden;fillColor=none;top=0;left=0;bottom=0;right=0;pointerEvents=1;" vertex="1" parent="sAEdU9W-AbyJChdEUiqo-206">
          <mxGeometry x="421" width="141" height="40" as="geometry">
            <mxRectangle width="141" height="40" as="alternateBounds" />
          </mxGeometry>
        </mxCell>
        <mxCell id="sAEdU9W-AbyJChdEUiqo-21" value="" style="shape=tableRow;horizontal=0;startSize=0;swimlaneHead=0;swimlaneBody=0;top=0;left=0;bottom=0;right=0;collapsible=0;dropTarget=0;fillColor=none;points=[[0,0.5],[1,0.5]];portConstraint=eastwest;" vertex="1" parent="sAEdU9W-AbyJChdEUiqo-2">
          <mxGeometry y="120" width="562" height="40" as="geometry" />
        </mxCell>
        <mxCell id="sAEdU9W-AbyJChdEUiqo-23" value="&lt;span&gt;项目&lt;/span&gt;" style="shape=partialRectangle;html=1;whiteSpace=wrap;connectable=0;overflow=hidden;fillColor=none;top=0;left=0;bottom=0;right=0;pointerEvents=1;" vertex="1" parent="sAEdU9W-AbyJChdEUiqo-21">
          <mxGeometry width="140" height="40" as="geometry">
            <mxRectangle width="140" height="40" as="alternateBounds" />
          </mxGeometry>
        </mxCell>
        <mxCell id="sAEdU9W-AbyJChdEUiqo-24" value="&lt;span&gt;活动&lt;/span&gt;" style="shape=partialRectangle;html=1;whiteSpace=wrap;connectable=0;overflow=hidden;fillColor=none;top=0;left=0;bottom=0;right=0;pointerEvents=1;" vertex="1" parent="sAEdU9W-AbyJChdEUiqo-21">
          <mxGeometry x="140" width="141" height="40" as="geometry">
            <mxRectangle width="141" height="40" as="alternateBounds" />
          </mxGeometry>
        </mxCell>
        <mxCell id="sAEdU9W-AbyJChdEUiqo-25" value="&lt;span&gt;项目&lt;/span&gt;" style="shape=partialRectangle;html=1;whiteSpace=wrap;connectable=0;overflow=hidden;fillColor=none;top=0;left=0;bottom=0;right=0;pointerEvents=1;" vertex="1" parent="sAEdU9W-AbyJChdEUiqo-21">
          <mxGeometry x="281" width="140" height="40" as="geometry">
            <mxRectangle width="140" height="40" as="alternateBounds" />
          </mxGeometry>
        </mxCell>
        <mxCell id="sAEdU9W-AbyJChdEUiqo-26" value="&lt;span&gt;场景+维度&lt;/span&gt;" style="shape=partialRectangle;html=1;whiteSpace=wrap;connectable=0;overflow=hidden;fillColor=none;top=0;left=0;bottom=0;right=0;pointerEvents=1;" vertex="1" parent="sAEdU9W-AbyJChdEUiqo-21">
          <mxGeometry x="421" width="141" height="40" as="geometry">
            <mxRectangle width="141" height="40" as="alternateBounds" />
          </mxGeometry>
        </mxCell>
        <mxCell id="sAEdU9W-AbyJChdEUiqo-27" value="" style="shape=tableRow;horizontal=0;startSize=0;swimlaneHead=0;swimlaneBody=0;top=0;left=0;bottom=0;right=0;collapsible=0;dropTarget=0;fillColor=none;points=[[0,0.5],[1,0.5]];portConstraint=eastwest;" vertex="1" parent="sAEdU9W-AbyJChdEUiqo-2">
          <mxGeometry y="160" width="562" height="40" as="geometry" />
        </mxCell>
        <mxCell id="sAEdU9W-AbyJChdEUiqo-29" value="无" style="shape=partialRectangle;html=1;whiteSpace=wrap;connectable=0;overflow=hidden;fillColor=none;top=0;left=0;bottom=0;right=0;pointerEvents=1;" vertex="1" parent="sAEdU9W-AbyJChdEUiqo-27">
          <mxGeometry width="140" height="40" as="geometry">
            <mxRectangle width="140" height="40" as="alternateBounds" />
          </mxGeometry>
        </mxCell>
        <mxCell id="sAEdU9W-AbyJChdEUiqo-30" value="有" style="shape=partialRectangle;html=1;whiteSpace=wrap;connectable=0;overflow=hidden;fillColor=none;top=0;left=0;bottom=0;right=0;pointerEvents=1;" vertex="1" parent="sAEdU9W-AbyJChdEUiqo-27">
          <mxGeometry x="140" width="141" height="40" as="geometry">
            <mxRectangle width="141" height="40" as="alternateBounds" />
          </mxGeometry>
        </mxCell>
        <mxCell id="sAEdU9W-AbyJChdEUiqo-31" value="无" style="shape=partialRectangle;html=1;whiteSpace=wrap;connectable=0;overflow=hidden;fillColor=none;top=0;left=0;bottom=0;right=0;pointerEvents=1;" vertex="1" parent="sAEdU9W-AbyJChdEUiqo-27">
          <mxGeometry x="281" width="140" height="40" as="geometry">
            <mxRectangle width="140" height="40" as="alternateBounds" />
          </mxGeometry>
        </mxCell>
        <mxCell id="sAEdU9W-AbyJChdEUiqo-32" value="有" style="shape=partialRectangle;html=1;whiteSpace=wrap;connectable=0;overflow=hidden;fillColor=none;top=0;left=0;bottom=0;right=0;pointerEvents=1;" vertex="1" parent="sAEdU9W-AbyJChdEUiqo-27">
          <mxGeometry x="421" width="141" height="40" as="geometry">
            <mxRectangle width="141" height="40" as="alternateBounds" />
          </mxGeometry>
        </mxCell>
        <mxCell id="sAEdU9W-AbyJChdEUiqo-61" style="shape=tableRow;horizontal=0;startSize=0;swimlaneHead=0;swimlaneBody=0;top=0;left=0;bottom=0;right=0;collapsible=0;dropTarget=0;fillColor=none;points=[[0,0.5],[1,0.5]];portConstraint=eastwest;" vertex="1" parent="sAEdU9W-AbyJChdEUiqo-2">
          <mxGeometry y="200" width="562" height="40" as="geometry" />
        </mxCell>
        <mxCell id="sAEdU9W-AbyJChdEUiqo-63" value="无" style="shape=partialRectangle;html=1;whiteSpace=wrap;connectable=0;overflow=hidden;fillColor=none;top=0;left=0;bottom=0;right=0;pointerEvents=1;" vertex="1" parent="sAEdU9W-AbyJChdEUiqo-61">
          <mxGeometry width="140" height="40" as="geometry">
            <mxRectangle width="140" height="40" as="alternateBounds" />
          </mxGeometry>
        </mxCell>
        <mxCell id="sAEdU9W-AbyJChdEUiqo-64" value="低" style="shape=partialRectangle;html=1;whiteSpace=wrap;connectable=0;overflow=hidden;fillColor=none;top=0;left=0;bottom=0;right=0;pointerEvents=1;" vertex="1" parent="sAEdU9W-AbyJChdEUiqo-61">
          <mxGeometry x="140" width="141" height="40" as="geometry">
            <mxRectangle width="141" height="40" as="alternateBounds" />
          </mxGeometry>
        </mxCell>
        <mxCell id="sAEdU9W-AbyJChdEUiqo-65" value="低" style="shape=partialRectangle;html=1;whiteSpace=wrap;connectable=0;overflow=hidden;fillColor=none;top=0;left=0;bottom=0;right=0;pointerEvents=1;" vertex="1" parent="sAEdU9W-AbyJChdEUiqo-61">
          <mxGeometry x="281" width="140" height="40" as="geometry">
            <mxRectangle width="140" height="40" as="alternateBounds" />
          </mxGeometry>
        </mxCell>
        <mxCell id="sAEdU9W-AbyJChdEUiqo-66" value="高" style="shape=partialRectangle;html=1;whiteSpace=wrap;connectable=0;overflow=hidden;fillColor=none;top=0;left=0;bottom=0;right=0;pointerEvents=1;" vertex="1" parent="sAEdU9W-AbyJChdEUiqo-61">
          <mxGeometry x="421" width="141" height="40" as="geometry">
            <mxRectangle width="141" height="40" as="alternateBounds" />
          </mxGeometry>
        </mxCell>
        <mxCell id="sAEdU9W-AbyJChdEUiqo-199" style="shape=tableRow;horizontal=0;startSize=0;swimlaneHead=0;swimlaneBody=0;top=0;left=0;bottom=0;right=0;collapsible=0;dropTarget=0;fillColor=none;points=[[0,0.5],[1,0.5]];portConstraint=eastwest;" vertex="1" parent="sAEdU9W-AbyJChdEUiqo-2">
          <mxGeometry y="240" width="562" height="40" as="geometry" />
        </mxCell>
        <mxCell id="sAEdU9W-AbyJChdEUiqo-200" value="低" style="shape=partialRectangle;html=1;whiteSpace=wrap;connectable=0;overflow=hidden;fillColor=none;top=0;left=0;bottom=0;right=0;pointerEvents=1;" vertex="1" parent="sAEdU9W-AbyJChdEUiqo-199">
          <mxGeometry width="140" height="40" as="geometry">
            <mxRectangle width="140" height="40" as="alternateBounds" />
          </mxGeometry>
        </mxCell>
        <mxCell id="sAEdU9W-AbyJChdEUiqo-201" value="高" style="shape=partialRectangle;html=1;whiteSpace=wrap;connectable=0;overflow=hidden;fillColor=none;top=0;left=0;bottom=0;right=0;pointerEvents=1;" vertex="1" parent="sAEdU9W-AbyJChdEUiqo-199">
          <mxGeometry x="140" width="141" height="40" as="geometry">
            <mxRectangle width="141" height="40" as="alternateBounds" />
          </mxGeometry>
        </mxCell>
        <mxCell id="sAEdU9W-AbyJChdEUiqo-202" value="高" style="shape=partialRectangle;html=1;whiteSpace=wrap;connectable=0;overflow=hidden;fillColor=none;top=0;left=0;bottom=0;right=0;pointerEvents=1;" vertex="1" parent="sAEdU9W-AbyJChdEUiqo-199">
          <mxGeometry x="281" width="140" height="40" as="geometry">
            <mxRectangle width="140" height="40" as="alternateBounds" />
          </mxGeometry>
        </mxCell>
        <mxCell id="sAEdU9W-AbyJChdEUiqo-203" value="低" style="shape=partialRectangle;html=1;whiteSpace=wrap;connectable=0;overflow=hidden;fillColor=none;top=0;left=0;bottom=0;right=0;pointerEvents=1;" vertex="1" parent="sAEdU9W-AbyJChdEUiqo-199">
          <mxGeometry x="421" width="141" height="40" as="geometry">
            <mxRectangle width="141" height="40" as="alternateBounds" />
          </mxGeometry>
        </mxCell>
        <mxCell id="sAEdU9W-AbyJChdEUiqo-33" value="" style="shape=table;startSize=0;container=1;collapsible=0;childLayout=tableLayout;fontSize=12;" vertex="1" parent="1">
          <mxGeometry x="37" y="290" width="100" height="318" as="geometry" />
        </mxCell>
        <mxCell id="sAEdU9W-AbyJChdEUiqo-34" value="" style="shape=tableRow;horizontal=0;startSize=0;swimlaneHead=0;swimlaneBody=0;top=0;left=0;bottom=0;right=0;collapsible=0;dropTarget=0;fillColor=none;points=[[0,0.5],[1,0.5]];portConstraint=eastwest;" vertex="1" parent="sAEdU9W-AbyJChdEUiqo-33">
          <mxGeometry width="100" height="39" as="geometry" />
        </mxCell>
        <mxCell id="sAEdU9W-AbyJChdEUiqo-35" value="适用场景" style="shape=partialRectangle;html=1;whiteSpace=wrap;connectable=0;overflow=hidden;fillColor=none;top=0;left=0;bottom=0;right=0;pointerEvents=1;" vertex="1" parent="sAEdU9W-AbyJChdEUiqo-34">
          <mxGeometry width="100" height="39" as="geometry">
            <mxRectangle width="100" height="39" as="alternateBounds" />
          </mxGeometry>
        </mxCell>
        <mxCell id="sAEdU9W-AbyJChdEUiqo-36" value="" style="shape=tableRow;horizontal=0;startSize=0;swimlaneHead=0;swimlaneBody=0;top=0;left=0;bottom=0;right=0;collapsible=0;dropTarget=0;fillColor=none;points=[[0,0.5],[1,0.5]];portConstraint=eastwest;" vertex="1" parent="sAEdU9W-AbyJChdEUiqo-33">
          <mxGeometry y="39" width="100" height="42" as="geometry" />
        </mxCell>
        <mxCell id="sAEdU9W-AbyJChdEUiqo-37" value="语言" style="shape=partialRectangle;html=1;whiteSpace=wrap;connectable=0;overflow=hidden;fillColor=none;top=0;left=0;bottom=0;right=0;pointerEvents=1;" vertex="1" parent="sAEdU9W-AbyJChdEUiqo-36">
          <mxGeometry width="100" height="42" as="geometry">
            <mxRectangle width="100" height="42" as="alternateBounds" />
          </mxGeometry>
        </mxCell>
        <mxCell id="sAEdU9W-AbyJChdEUiqo-38" value="" style="shape=tableRow;horizontal=0;startSize=0;swimlaneHead=0;swimlaneBody=0;top=0;left=0;bottom=0;right=0;collapsible=0;dropTarget=0;fillColor=none;points=[[0,0.5],[1,0.5]];portConstraint=eastwest;" vertex="1" parent="sAEdU9W-AbyJChdEUiqo-33">
          <mxGeometry y="81" width="100" height="39" as="geometry" />
        </mxCell>
        <mxCell id="sAEdU9W-AbyJChdEUiqo-39" value="函数库" style="shape=partialRectangle;html=1;whiteSpace=wrap;connectable=0;overflow=hidden;fillColor=none;top=0;left=0;bottom=0;right=0;pointerEvents=1;" vertex="1" parent="sAEdU9W-AbyJChdEUiqo-38">
          <mxGeometry width="100" height="39" as="geometry">
            <mxRectangle width="100" height="39" as="alternateBounds" />
          </mxGeometry>
        </mxCell>
        <mxCell id="sAEdU9W-AbyJChdEUiqo-204" style="shape=tableRow;horizontal=0;startSize=0;swimlaneHead=0;swimlaneBody=0;top=0;left=0;bottom=0;right=0;collapsible=0;dropTarget=0;fillColor=none;points=[[0,0.5],[1,0.5]];portConstraint=eastwest;" vertex="1" parent="sAEdU9W-AbyJChdEUiqo-33">
          <mxGeometry y="120" width="100" height="39" as="geometry" />
        </mxCell>
        <mxCell id="sAEdU9W-AbyJChdEUiqo-205" value="第三方库" style="shape=partialRectangle;html=1;whiteSpace=wrap;connectable=0;overflow=hidden;fillColor=none;top=0;left=0;bottom=0;right=0;pointerEvents=1;" vertex="1" parent="sAEdU9W-AbyJChdEUiqo-204">
          <mxGeometry width="100" height="39" as="geometry">
            <mxRectangle width="100" height="39" as="alternateBounds" />
          </mxGeometry>
        </mxCell>
        <mxCell id="sAEdU9W-AbyJChdEUiqo-40" value="" style="shape=tableRow;horizontal=0;startSize=0;swimlaneHead=0;swimlaneBody=0;top=0;left=0;bottom=0;right=0;collapsible=0;dropTarget=0;fillColor=none;points=[[0,0.5],[1,0.5]];portConstraint=eastwest;" vertex="1" parent="sAEdU9W-AbyJChdEUiqo-33">
          <mxGeometry y="159" width="100" height="39" as="geometry" />
        </mxCell>
        <mxCell id="sAEdU9W-AbyJChdEUiqo-41" value="维度" style="shape=partialRectangle;html=1;whiteSpace=wrap;connectable=0;overflow=hidden;fillColor=none;top=0;left=0;bottom=0;right=0;pointerEvents=1;" vertex="1" parent="sAEdU9W-AbyJChdEUiqo-40">
          <mxGeometry width="100" height="39" as="geometry">
            <mxRectangle width="100" height="39" as="alternateBounds" />
          </mxGeometry>
        </mxCell>
        <mxCell id="sAEdU9W-AbyJChdEUiqo-42" value="" style="shape=tableRow;horizontal=0;startSize=0;swimlaneHead=0;swimlaneBody=0;top=0;left=0;bottom=0;right=0;collapsible=0;dropTarget=0;fillColor=none;points=[[0,0.5],[1,0.5]];portConstraint=eastwest;" vertex="1" parent="sAEdU9W-AbyJChdEUiqo-33">
          <mxGeometry y="198" width="100" height="42" as="geometry" />
        </mxCell>
        <mxCell id="sAEdU9W-AbyJChdEUiqo-43" value="版本管理" style="shape=partialRectangle;html=1;whiteSpace=wrap;connectable=0;overflow=hidden;fillColor=none;top=0;left=0;bottom=0;right=0;pointerEvents=1;" vertex="1" parent="sAEdU9W-AbyJChdEUiqo-42">
          <mxGeometry width="100" height="42" as="geometry">
            <mxRectangle width="100" height="42" as="alternateBounds" />
          </mxGeometry>
        </mxCell>
        <mxCell id="sAEdU9W-AbyJChdEUiqo-59" style="shape=tableRow;horizontal=0;startSize=0;swimlaneHead=0;swimlaneBody=0;top=0;left=0;bottom=0;right=0;collapsible=0;dropTarget=0;fillColor=none;points=[[0,0.5],[1,0.5]];portConstraint=eastwest;" vertex="1" parent="sAEdU9W-AbyJChdEUiqo-33">
          <mxGeometry y="240" width="100" height="39" as="geometry" />
        </mxCell>
        <mxCell id="sAEdU9W-AbyJChdEUiqo-60" value="扩展性" style="shape=partialRectangle;html=1;whiteSpace=wrap;connectable=0;overflow=hidden;fillColor=none;top=0;left=0;bottom=0;right=0;pointerEvents=1;" vertex="1" parent="sAEdU9W-AbyJChdEUiqo-59">
          <mxGeometry width="100" height="39" as="geometry">
            <mxRectangle width="100" height="39" as="alternateBounds" />
          </mxGeometry>
        </mxCell>
        <mxCell id="sAEdU9W-AbyJChdEUiqo-197" style="shape=tableRow;horizontal=0;startSize=0;swimlaneHead=0;swimlaneBody=0;top=0;left=0;bottom=0;right=0;collapsible=0;dropTarget=0;fillColor=none;points=[[0,0.5],[1,0.5]];portConstraint=eastwest;" vertex="1" parent="sAEdU9W-AbyJChdEUiqo-33">
          <mxGeometry y="279" width="100" height="39" as="geometry" />
        </mxCell>
        <mxCell id="sAEdU9W-AbyJChdEUiqo-198" value="耦合度" style="shape=partialRectangle;html=1;whiteSpace=wrap;connectable=0;overflow=hidden;fillColor=none;top=0;left=0;bottom=0;right=0;pointerEvents=1;" vertex="1" parent="sAEdU9W-AbyJChdEUiqo-197">
          <mxGeometry width="100" height="39" as="geometry">
            <mxRectangle width="100" height="39" as="alternateBounds" />
          </mxGeometry>
        </mxCell>
        <mxCell id="sAEdU9W-AbyJChdEUiqo-52" value="" style="shape=table;startSize=0;container=1;collapsible=0;childLayout=tableLayout;fontSize=15;fillColor=#66B2FF;strokeColor=#001DBC;fontColor=#ffffff;" vertex="1" parent="1">
          <mxGeometry x="137" y="260" width="562" height="30" as="geometry" />
        </mxCell>
        <mxCell id="sAEdU9W-AbyJChdEUiqo-53" value="" style="shape=tableRow;horizontal=0;startSize=0;swimlaneHead=0;swimlaneBody=0;top=0;left=0;bottom=0;right=0;collapsible=0;dropTarget=0;fillColor=none;points=[[0,0.5],[1,0.5]];portConstraint=eastwest;fontSize=15;" vertex="1" parent="sAEdU9W-AbyJChdEUiqo-52">
          <mxGeometry width="562" height="30" as="geometry" />
        </mxCell>
        <mxCell id="sAEdU9W-AbyJChdEUiqo-55" value="腾讯云srf" style="shape=partialRectangle;html=1;whiteSpace=wrap;connectable=0;overflow=hidden;fillColor=none;top=0;left=0;bottom=0;right=0;pointerEvents=1;fontSize=15;fontColor=#FFFFFF;" vertex="1" parent="sAEdU9W-AbyJChdEUiqo-53">
          <mxGeometry width="140" height="30" as="geometry">
            <mxRectangle width="140" height="30" as="alternateBounds" />
          </mxGeometry>
        </mxCell>
        <mxCell id="sAEdU9W-AbyJChdEUiqo-56" value="onfun" style="shape=partialRectangle;html=1;whiteSpace=wrap;connectable=0;overflow=hidden;fillColor=none;top=0;left=0;bottom=0;right=0;pointerEvents=1;fontSize=15;fontColor=#FFFFFF;" vertex="1" parent="sAEdU9W-AbyJChdEUiqo-53">
          <mxGeometry x="140" width="141" height="30" as="geometry">
            <mxRectangle width="141" height="30" as="alternateBounds" />
          </mxGeometry>
        </mxCell>
        <mxCell id="sAEdU9W-AbyJChdEUiqo-57" value="&lt;font color=&quot;#ffffff&quot;&gt;无极&lt;/font&gt;" style="shape=partialRectangle;html=1;whiteSpace=wrap;connectable=0;overflow=hidden;fillColor=none;top=0;left=0;bottom=0;right=0;pointerEvents=1;fontSize=15;strokeColor=#3399FF;" vertex="1" parent="sAEdU9W-AbyJChdEUiqo-53">
          <mxGeometry x="281" width="140" height="30" as="geometry">
            <mxRectangle width="140" height="30" as="alternateBounds" />
          </mxGeometry>
        </mxCell>
        <mxCell id="sAEdU9W-AbyJChdEUiqo-58" value="&lt;font color=&quot;#ffffff&quot;&gt;函数网格&lt;/font&gt;" style="shape=partialRectangle;html=1;whiteSpace=wrap;connectable=0;overflow=hidden;fillColor=#007FFF;top=0;left=0;bottom=0;right=0;pointerEvents=1;fontSize=15;strokeColor=#0066CC;" vertex="1" parent="sAEdU9W-AbyJChdEUiqo-53">
          <mxGeometry x="421" width="141" height="30" as="geometry">
            <mxRectangle width="141" height="30" as="alternateBounds" />
          </mxGeometry>
        </mxCell>
        <mxCell id="sAEdU9W-AbyJChdEUiqo-70" value="时延敏感，流量波动小" style="rounded=0;whiteSpace=wrap;html=1;fontSize=11;fillColor=#dae8fc;strokeColor=#6c8ebf;" vertex="1" parent="1">
          <mxGeometry x="277" y="290" width="422" height="40" as="geometry" />
        </mxCell>
        <mxCell id="sAEdU9W-AbyJChdEUiqo-77" value="serverless" style="rounded=0;whiteSpace=wrap;html=1;fontSize=10;" vertex="1" parent="1">
          <mxGeometry x="137" y="230" width="140" height="30" as="geometry" />
        </mxCell>
        <mxCell id="sAEdU9W-AbyJChdEUiqo-78" value="faas" style="rounded=0;whiteSpace=wrap;html=1;fontSize=11;" vertex="1" parent="1">
          <mxGeometry x="277" y="230" width="422" height="30" as="geometry" />
        </mxCell>
        <mxCell id="sAEdU9W-AbyJChdEUiqo-79" value="" style="shape=table;startSize=0;container=1;collapsible=0;childLayout=tableLayout;fontSize=11;strokeColor=#3399FF;" vertex="1" parent="1">
          <mxGeometry x="130" y="710" width="240" height="40" as="geometry" />
        </mxCell>
        <mxCell id="sAEdU9W-AbyJChdEUiqo-80" value="" style="shape=tableRow;horizontal=0;startSize=0;swimlaneHead=0;swimlaneBody=0;top=0;left=0;bottom=0;right=0;collapsible=0;dropTarget=0;fillColor=none;points=[[0,0.5],[1,0.5]];portConstraint=eastwest;fontSize=11;strokeColor=#3399FF;" vertex="1" parent="sAEdU9W-AbyJChdEUiqo-79">
          <mxGeometry width="240" height="40" as="geometry" />
        </mxCell>
        <mxCell id="sAEdU9W-AbyJChdEUiqo-81" value="tengo" style="shape=partialRectangle;html=1;whiteSpace=wrap;connectable=0;overflow=hidden;fillColor=none;top=0;left=0;bottom=0;right=0;pointerEvents=1;fontSize=11;strokeColor=#3399FF;" vertex="1" parent="sAEdU9W-AbyJChdEUiqo-80">
          <mxGeometry width="60" height="40" as="geometry">
            <mxRectangle width="60" height="40" as="alternateBounds" />
          </mxGeometry>
        </mxCell>
        <mxCell id="sAEdU9W-AbyJChdEUiqo-82" value="" style="shape=partialRectangle;html=1;whiteSpace=wrap;connectable=0;overflow=hidden;fillColor=none;top=0;left=0;bottom=0;right=0;pointerEvents=1;fontSize=11;strokeColor=#3399FF;" vertex="1" parent="sAEdU9W-AbyJChdEUiqo-80">
          <mxGeometry x="60" width="60" height="40" as="geometry">
            <mxRectangle width="60" height="40" as="alternateBounds" />
          </mxGeometry>
        </mxCell>
        <mxCell id="sAEdU9W-AbyJChdEUiqo-83" value="" style="shape=partialRectangle;html=1;whiteSpace=wrap;connectable=0;overflow=hidden;fillColor=none;top=0;left=0;bottom=0;right=0;pointerEvents=1;fontSize=11;strokeColor=#3399FF;" vertex="1" parent="sAEdU9W-AbyJChdEUiqo-80">
          <mxGeometry x="120" width="60" height="40" as="geometry">
            <mxRectangle width="60" height="40" as="alternateBounds" />
          </mxGeometry>
        </mxCell>
        <mxCell id="sAEdU9W-AbyJChdEUiqo-84" value="" style="shape=partialRectangle;html=1;whiteSpace=wrap;connectable=0;overflow=hidden;fillColor=none;top=0;left=0;bottom=0;right=0;pointerEvents=1;fontSize=11;strokeColor=#3399FF;" vertex="1" parent="sAEdU9W-AbyJChdEUiqo-80">
          <mxGeometry x="180" width="60" height="40" as="geometry">
            <mxRectangle width="60" height="40" as="alternateBounds" />
          </mxGeometry>
        </mxCell>
        <mxCell id="sAEdU9W-AbyJChdEUiqo-100" value="page uuid" style="rounded=0;whiteSpace=wrap;html=1;fontSize=11;strokeColor=#3399FF;" vertex="1" parent="1">
          <mxGeometry x="247" y="841" width="90" height="30" as="geometry" />
        </mxCell>
        <mxCell id="sAEdU9W-AbyJChdEUiqo-101" value="" style="rounded=0;whiteSpace=wrap;html=1;fontSize=11;strokeColor=#3399FF;dashed=1;" vertex="1" parent="1">
          <mxGeometry x="247" y="877" width="90" height="64" as="geometry" />
        </mxCell>
        <mxCell id="sAEdU9W-AbyJChdEUiqo-102" value="page uuid" style="rounded=0;whiteSpace=wrap;html=1;fontSize=11;strokeColor=#3399FF;" vertex="1" parent="1">
          <mxGeometry x="255" y="907" width="74" height="29" as="geometry" />
        </mxCell>
        <mxCell id="sAEdU9W-AbyJChdEUiqo-103" value="folder uuid" style="text;html=1;strokeColor=none;fillColor=none;align=center;verticalAlign=middle;whiteSpace=wrap;rounded=0;fontSize=11;" vertex="1" parent="1">
          <mxGeometry x="262" y="881" width="60" height="20" as="geometry" />
        </mxCell>
        <mxCell id="sAEdU9W-AbyJChdEUiqo-137" value="" style="curved=1;endArrow=classic;html=1;rounded=0;fontSize=11;exitX=1;exitY=0.5;exitDx=0;exitDy=0;dashed=1;" edge="1" parent="1" source="sAEdU9W-AbyJChdEUiqo-100" target="sAEdU9W-AbyJChdEUiqo-136">
          <mxGeometry width="50" height="50" relative="1" as="geometry">
            <mxPoint x="450" y="881" as="sourcePoint" />
            <mxPoint x="500" y="831" as="targetPoint" />
            <Array as="points">
              <mxPoint x="450" y="861" />
            </Array>
          </mxGeometry>
        </mxCell>
        <mxCell id="sAEdU9W-AbyJChdEUiqo-146" value="" style="group" vertex="1" connectable="0" parent="1">
          <mxGeometry x="20" y="831" width="110" height="190" as="geometry" />
        </mxCell>
        <mxCell id="sAEdU9W-AbyJChdEUiqo-141" value="" style="rounded=0;whiteSpace=wrap;html=1;shadow=0;dashed=1;fontSize=11;strokeColor=#3399FF;" vertex="1" parent="sAEdU9W-AbyJChdEUiqo-146">
          <mxGeometry width="110" height="190" as="geometry" />
        </mxCell>
        <mxCell id="sAEdU9W-AbyJChdEUiqo-94" value="actConfig" style="rounded=0;whiteSpace=wrap;html=1;fontSize=11;strokeColor=#3399FF;" vertex="1" parent="sAEdU9W-AbyJChdEUiqo-146">
          <mxGeometry x="10" y="9.047619047619047" width="90" height="36.19047619047619" as="geometry" />
        </mxCell>
        <mxCell id="sAEdU9W-AbyJChdEUiqo-95" value="pages" style="rounded=0;whiteSpace=wrap;html=1;fontSize=11;strokeColor=#6c8ebf;fillColor=#dae8fc;" vertex="1" parent="sAEdU9W-AbyJChdEUiqo-146">
          <mxGeometry x="10" y="54.285714285714285" width="90" height="36.19047619047619" as="geometry" />
        </mxCell>
        <mxCell id="sAEdU9W-AbyJChdEUiqo-96" value="configs" style="rounded=0;whiteSpace=wrap;html=1;fontSize=11;strokeColor=#6c8ebf;fillColor=#dae8fc;" vertex="1" parent="sAEdU9W-AbyJChdEUiqo-146">
          <mxGeometry x="10" y="99.52380952380952" width="90" height="36.19047619047619" as="geometry" />
        </mxCell>
        <mxCell id="sAEdU9W-AbyJChdEUiqo-97" value="reportConfig" style="rounded=0;whiteSpace=wrap;html=1;fontSize=11;strokeColor=#3399FF;" vertex="1" parent="sAEdU9W-AbyJChdEUiqo-146">
          <mxGeometry x="10" y="144.76190476190476" width="90" height="36.19047619047619" as="geometry" />
        </mxCell>
        <mxCell id="sAEdU9W-AbyJChdEUiqo-136" value="" style="rounded=0;whiteSpace=wrap;html=1;dashed=1;fontSize=11;strokeColor=#3399FF;shadow=0;" vertex="1" parent="1">
          <mxGeometry x="250" y="991" width="380" height="270" as="geometry" />
        </mxCell>
        <mxCell id="sAEdU9W-AbyJChdEUiqo-117" value="" style="group" vertex="1" connectable="0" parent="1">
          <mxGeometry x="262.590799031477" y="1009.4615384615385" width="271.1864406779661" height="240" as="geometry" />
        </mxCell>
        <mxCell id="sAEdU9W-AbyJChdEUiqo-105" value="" style="rounded=0;whiteSpace=wrap;html=1;fontSize=11;strokeColor=#3399FF;dashed=1;" vertex="1" parent="sAEdU9W-AbyJChdEUiqo-117">
          <mxGeometry width="123.87" height="240" as="geometry" />
        </mxCell>
        <mxCell id="sAEdU9W-AbyJChdEUiqo-106" value="background" style="rounded=0;whiteSpace=wrap;html=1;fontSize=11;strokeColor=#3399FF;" vertex="1" parent="sAEdU9W-AbyJChdEUiqo-117">
          <mxGeometry x="11.010577290684338" y="39.393692307692206" width="101.84783993883013" height="24.298615384615385" as="geometry" />
        </mxCell>
        <mxCell id="sAEdU9W-AbyJChdEUiqo-107" value="canvasConfig" style="text;html=1;strokeColor=none;fillColor=none;align=center;verticalAlign=middle;whiteSpace=wrap;rounded=0;fontSize=11;" vertex="1" parent="sAEdU9W-AbyJChdEUiqo-117">
          <mxGeometry x="20.644832420033133" width="82.57932968013253" height="31.846153846153847" as="geometry" />
        </mxCell>
        <mxCell id="sAEdU9W-AbyJChdEUiqo-108" value="resolution" style="rounded=0;whiteSpace=wrap;html=1;fontSize=11;strokeColor=#3399FF;" vertex="1" parent="sAEdU9W-AbyJChdEUiqo-117">
          <mxGeometry x="11.010577290684338" y="74.3076923076923" width="101.84783993883013" height="21.230769230769234" as="geometry" />
        </mxCell>
        <mxCell id="sAEdU9W-AbyJChdEUiqo-109" value="pageMeta" style="rounded=0;whiteSpace=wrap;html=1;fontSize=11;strokeColor=#3399FF;" vertex="1" parent="sAEdU9W-AbyJChdEUiqo-117">
          <mxGeometry x="11.010577290684338" y="106.15384615384615" width="101.84783993883013" height="21.230769230769234" as="geometry" />
        </mxCell>
        <mxCell id="sAEdU9W-AbyJChdEUiqo-110" value="shareConfig" style="rounded=0;whiteSpace=wrap;html=1;fontSize=11;strokeColor=#3399FF;" vertex="1" parent="sAEdU9W-AbyJChdEUiqo-117">
          <mxGeometry x="11.010577290684338" y="136.93846153846155" width="101.84783993883013" height="21.230769230769234" as="geometry" />
        </mxCell>
        <mxCell id="sAEdU9W-AbyJChdEUiqo-111" value="" style="rounded=0;whiteSpace=wrap;html=1;fontSize=11;strokeColor=#6c8ebf;dashed=1;fillColor=#dae8fc;" vertex="1" parent="sAEdU9W-AbyJChdEUiqo-117">
          <mxGeometry x="137.63" width="123.87" height="240" as="geometry" />
        </mxCell>
        <mxCell id="sAEdU9W-AbyJChdEUiqo-112" value="component uuid" style="rounded=0;whiteSpace=wrap;html=1;fontSize=11;strokeColor=#3399FF;" vertex="1" parent="sAEdU9W-AbyJChdEUiqo-117">
          <mxGeometry x="148.64279342423856" y="39.393692307692206" width="101.84783993883013" height="24.298615384615385" as="geometry" />
        </mxCell>
        <mxCell id="sAEdU9W-AbyJChdEUiqo-113" value="componentConfig * N" style="text;html=1;strokeColor=none;fillColor=none;align=center;verticalAlign=middle;whiteSpace=wrap;rounded=0;fontSize=11;" vertex="1" parent="sAEdU9W-AbyJChdEUiqo-117">
          <mxGeometry x="140.3680387409201" width="118.39225181598063" height="31.846153846153847" as="geometry" />
        </mxCell>
        <mxCell id="sAEdU9W-AbyJChdEUiqo-114" value="name" style="rounded=0;whiteSpace=wrap;html=1;fontSize=11;strokeColor=#3399FF;" vertex="1" parent="sAEdU9W-AbyJChdEUiqo-117">
          <mxGeometry x="148.64279342423856" y="74.3076923076923" width="101.84783993883013" height="21.230769230769234" as="geometry" />
        </mxCell>
        <mxCell id="sAEdU9W-AbyJChdEUiqo-115" value="styles" style="rounded=0;whiteSpace=wrap;html=1;fontSize=11;strokeColor=#3399FF;" vertex="1" parent="sAEdU9W-AbyJChdEUiqo-117">
          <mxGeometry x="148.64279342423856" y="106.15384615384615" width="101.84783993883013" height="21.230769230769234" as="geometry" />
        </mxCell>
        <mxCell id="sAEdU9W-AbyJChdEUiqo-116" value="events" style="rounded=0;whiteSpace=wrap;html=1;fontSize=11;strokeColor=#3399FF;" vertex="1" parent="sAEdU9W-AbyJChdEUiqo-117">
          <mxGeometry x="148.64279342423856" y="136.93846153846155" width="101.84783993883013" height="21.230769230769234" as="geometry" />
        </mxCell>
        <mxCell id="sAEdU9W-AbyJChdEUiqo-118" value="configData" style="rounded=0;whiteSpace=wrap;html=1;fontSize=11;strokeColor=#3399FF;" vertex="1" parent="sAEdU9W-AbyJChdEUiqo-117">
          <mxGeometry x="148.64279342423848" y="166.15384615384616" width="101.84783993883013" height="21.230769230769234" as="geometry" />
        </mxCell>
        <mxCell id="sAEdU9W-AbyJChdEUiqo-119" value="pluginConfig" style="rounded=0;whiteSpace=wrap;html=1;fontSize=11;strokeColor=#6c8ebf;fillColor=#dae8fc;" vertex="1" parent="sAEdU9W-AbyJChdEUiqo-117">
          <mxGeometry x="11.01057729068432" y="167.0769230769231" width="101.84783993883013" height="21.230769230769234" as="geometry" />
        </mxCell>
        <mxCell id="sAEdU9W-AbyJChdEUiqo-259" value="children" style="rounded=0;whiteSpace=wrap;html=1;fontSize=11;strokeColor=#3399FF;" vertex="1" parent="sAEdU9W-AbyJChdEUiqo-117">
          <mxGeometry x="148.64279342423845" y="195.53384615384618" width="101.84783993883013" height="21.230769230769234" as="geometry" />
        </mxCell>
        <mxCell id="sAEdU9W-AbyJChdEUiqo-261" value="" style="curved=1;endArrow=classic;html=1;rounded=0;fontSize=9;fontColor=#000000;exitX=0.25;exitY=1;exitDx=0;exitDy=0;entryX=0;entryY=0.75;entryDx=0;entryDy=0;" edge="1" parent="sAEdU9W-AbyJChdEUiqo-117" source="sAEdU9W-AbyJChdEUiqo-259" target="sAEdU9W-AbyJChdEUiqo-111">
          <mxGeometry width="50" height="50" relative="1" as="geometry">
            <mxPoint x="117.40920096852301" y="311.53846153846155" as="sourcePoint" />
            <mxPoint x="167.409200968523" y="261.53846153846155" as="targetPoint" />
            <Array as="points">
              <mxPoint x="117.40920096852301" y="241.53846153846155" />
            </Array>
          </mxGeometry>
        </mxCell>
        <mxCell id="sAEdU9W-AbyJChdEUiqo-131" value="" style="curved=1;endArrow=classic;html=1;rounded=0;fontSize=11;entryX=0;entryY=0.5;entryDx=0;entryDy=0;" edge="1" parent="1" target="sAEdU9W-AbyJChdEUiqo-120">
          <mxGeometry width="50" height="50" relative="1" as="geometry">
            <mxPoint x="513.4382566585956" y="1126.6923076923076" as="sourcePoint" />
            <mxPoint x="611.2590799031476" y="889.4615384615385" as="targetPoint" />
            <Array as="points">
              <mxPoint x="524.0920096852301" y="1111" />
              <mxPoint x="524.0920096852301" y="1079.6153846153845" />
            </Array>
          </mxGeometry>
        </mxCell>
        <mxCell id="sAEdU9W-AbyJChdEUiqo-134" value="" style="curved=1;endArrow=classic;html=1;rounded=0;fontSize=11;exitX=1;exitY=0.5;exitDx=0;exitDy=0;entryX=0;entryY=0.5;entryDx=0;entryDy=0;" edge="1" parent="1" source="sAEdU9W-AbyJChdEUiqo-116" target="sAEdU9W-AbyJChdEUiqo-124">
          <mxGeometry width="50" height="50" relative="1" as="geometry">
            <mxPoint x="524.0920096852301" y="1277.1538461538462" as="sourcePoint" />
            <mxPoint x="572.5181598062953" y="1231" as="targetPoint" />
            <Array as="points">
              <mxPoint x="524.0920096852301" y="1157.1538461538462" />
              <mxPoint x="533.7772397094432" y="1184.8461538461538" />
            </Array>
          </mxGeometry>
        </mxCell>
        <mxCell id="sAEdU9W-AbyJChdEUiqo-147" value="" style="group" vertex="1" connectable="0" parent="1">
          <mxGeometry x="551.21" y="1046.38" width="68.79" height="175.38" as="geometry" />
        </mxCell>
        <mxCell id="sAEdU9W-AbyJChdEUiqo-120" value="" style="rounded=0;whiteSpace=wrap;html=1;fontSize=11;strokeColor=#3399FF;dashed=1;" vertex="1" parent="sAEdU9W-AbyJChdEUiqo-147">
          <mxGeometry width="68.78999999999999" height="65.53673684210527" as="geometry" />
        </mxCell>
        <mxCell id="sAEdU9W-AbyJChdEUiqo-121" value="baseStyle" style="rounded=0;whiteSpace=wrap;html=1;fontSize=11;strokeColor=#3399FF;" vertex="1" parent="sAEdU9W-AbyJChdEUiqo-147">
          <mxGeometry x="6.114666666666663" y="10.153578947368427" width="56.560666666666656" height="18.461052631578948" as="geometry" />
        </mxCell>
        <mxCell id="sAEdU9W-AbyJChdEUiqo-123" value="otherStyle" style="rounded=0;whiteSpace=wrap;html=1;fontSize=11;strokeColor=#3399FF;" vertex="1" parent="sAEdU9W-AbyJChdEUiqo-147">
          <mxGeometry x="6.114666666666663" y="33.2298947368421" width="56.560666666666656" height="18.461052631578948" as="geometry" />
        </mxCell>
        <mxCell id="sAEdU9W-AbyJChdEUiqo-124" value="" style="rounded=0;whiteSpace=wrap;html=1;fontSize=11;strokeColor=#3399FF;dashed=1;" vertex="1" parent="sAEdU9W-AbyJChdEUiqo-147">
          <mxGeometry y="92.30526315789474" width="68.78999999999999" height="83.07473684210525" as="geometry" />
        </mxCell>
        <mxCell id="sAEdU9W-AbyJChdEUiqo-125" value="event id" style="rounded=0;whiteSpace=wrap;html=1;fontSize=11;strokeColor=#3399FF;" vertex="1" parent="sAEdU9W-AbyJChdEUiqo-147">
          <mxGeometry x="6.114666666666663" y="102.45884210526317" width="56.560666666666656" height="18.461052631578948" as="geometry" />
        </mxCell>
        <mxCell id="sAEdU9W-AbyJChdEUiqo-126" value="trigger" style="rounded=0;whiteSpace=wrap;html=1;fontSize=11;strokeColor=#3399FF;" vertex="1" parent="sAEdU9W-AbyJChdEUiqo-147">
          <mxGeometry x="6.114666666666663" y="125.53515789473684" width="56.560666666666656" height="18.461052631578948" as="geometry" />
        </mxCell>
        <mxCell id="sAEdU9W-AbyJChdEUiqo-127" value="payload" style="rounded=0;whiteSpace=wrap;html=1;fontSize=11;strokeColor=#3399FF;" vertex="1" parent="sAEdU9W-AbyJChdEUiqo-147">
          <mxGeometry x="6.114666666666663" y="149.53452631578946" width="56.560666666666656" height="18.461052631578948" as="geometry" />
        </mxCell>
        <mxCell id="sAEdU9W-AbyJChdEUiqo-138" value="" style="curved=1;endArrow=classic;html=1;rounded=0;fontSize=11;exitX=1;exitY=0.5;exitDx=0;exitDy=0;entryX=0;entryY=0;entryDx=0;entryDy=0;" edge="1" parent="1" source="sAEdU9W-AbyJChdEUiqo-96" target="sAEdU9W-AbyJChdEUiqo-136">
          <mxGeometry width="50" height="50" relative="1" as="geometry">
            <mxPoint x="220" y="951" as="sourcePoint" />
            <mxPoint x="270" y="901" as="targetPoint" />
            <Array as="points">
              <mxPoint x="170" y="941" />
              <mxPoint x="220" y="991" />
            </Array>
          </mxGeometry>
        </mxCell>
        <mxCell id="sAEdU9W-AbyJChdEUiqo-139" value="" style="curved=1;endArrow=classic;html=1;rounded=0;fontSize=11;exitX=1;exitY=0.5;exitDx=0;exitDy=0;entryX=0;entryY=0.5;entryDx=0;entryDy=0;" edge="1" parent="1" source="sAEdU9W-AbyJChdEUiqo-95" target="sAEdU9W-AbyJChdEUiqo-140">
          <mxGeometry width="50" height="50" relative="1" as="geometry">
            <mxPoint x="240" y="861" as="sourcePoint" />
            <mxPoint x="290" y="811" as="targetPoint" />
            <Array as="points">
              <mxPoint x="200" y="911" />
            </Array>
          </mxGeometry>
        </mxCell>
        <mxCell id="sAEdU9W-AbyJChdEUiqo-148" value="schema 规范" style="rounded=0;whiteSpace=wrap;html=1;shadow=0;dashed=1;fontSize=11;" vertex="1" parent="1">
          <mxGeometry x="137.76" y="1507" width="93" height="30" as="geometry" />
        </mxCell>
        <mxCell id="sAEdU9W-AbyJChdEUiqo-153" value="UI编辑引擎" style="rounded=0;whiteSpace=wrap;html=1;shadow=0;fontSize=11;strokeColor=#3399FF;dashed=1;dashPattern=1 1;" vertex="1" parent="1">
          <mxGeometry x="328.25" y="1434" width="90" height="30" as="geometry" />
        </mxCell>
        <mxCell id="sAEdU9W-AbyJChdEUiqo-155" value="shema 解析引擎" style="rounded=0;whiteSpace=wrap;html=1;shadow=0;fontSize=11;strokeColor=#6c8ebf;fillColor=#dae8fc;" vertex="1" parent="1">
          <mxGeometry x="491.5" y="1434.18" width="104" height="30" as="geometry" />
        </mxCell>
        <mxCell id="sAEdU9W-AbyJChdEUiqo-174" value="web" style="rounded=0;whiteSpace=wrap;html=1;shadow=0;fontSize=11;strokeColor=#6c8ebf;fillColor=#dae8fc;" vertex="1" parent="1">
          <mxGeometry x="428.25" y="1508.18" width="70" height="20" as="geometry" />
        </mxCell>
        <mxCell id="sAEdU9W-AbyJChdEUiqo-175" value="小程序" style="rounded=0;whiteSpace=wrap;html=1;shadow=0;fontSize=11;strokeColor=#3399FF;fillColor=default;dashed=1;dashPattern=1 1;" vertex="1" parent="1">
          <mxGeometry x="507.25" y="1508.18" width="70" height="20" as="geometry" />
        </mxCell>
        <mxCell id="sAEdU9W-AbyJChdEUiqo-176" value="native" style="rounded=0;whiteSpace=wrap;html=1;shadow=0;fontSize=11;strokeColor=#3399FF;fillColor=default;dashed=1;dashPattern=1 1;" vertex="1" parent="1">
          <mxGeometry x="584.75" y="1508.18" width="70" height="20" as="geometry" />
        </mxCell>
        <mxCell id="sAEdU9W-AbyJChdEUiqo-180" value="" style="endArrow=classic;html=1;rounded=0;fontSize=11;" edge="1" parent="1">
          <mxGeometry width="50" height="50" relative="1" as="geometry">
            <mxPoint x="260" y="1450" as="sourcePoint" />
            <mxPoint x="320" y="1450" as="targetPoint" />
          </mxGeometry>
        </mxCell>
        <mxCell id="sAEdU9W-AbyJChdEUiqo-185" value="" style="endArrow=classic;html=1;rounded=0;fontSize=11;" edge="1" parent="1">
          <mxGeometry width="50" height="50" relative="1" as="geometry">
            <mxPoint x="542.01" y="1490" as="sourcePoint" />
            <mxPoint x="542.01" y="1470" as="targetPoint" />
          </mxGeometry>
        </mxCell>
        <mxCell id="sAEdU9W-AbyJChdEUiqo-186" value="" style="endArrow=classic;html=1;rounded=0;fontSize=11;" edge="1" parent="1">
          <mxGeometry width="50" height="50" relative="1" as="geometry">
            <mxPoint x="542.01" y="1429" as="sourcePoint" />
            <mxPoint x="542.01" y="1409" as="targetPoint" />
          </mxGeometry>
        </mxCell>
        <mxCell id="sAEdU9W-AbyJChdEUiqo-187" value="" style="endArrow=classic;html=1;rounded=0;fontSize=11;" edge="1" parent="1">
          <mxGeometry width="50" height="50" relative="1" as="geometry">
            <mxPoint x="423.78" y="1449.76" as="sourcePoint" />
            <mxPoint x="483.78" y="1449.76" as="targetPoint" />
          </mxGeometry>
        </mxCell>
        <mxCell id="sAEdU9W-AbyJChdEUiqo-189" value="" style="group;fillColor=#dae8fc;strokeColor=#6c8ebf;" vertex="1" connectable="0" parent="1">
          <mxGeometry x="440" y="1340" width="206.25" height="60" as="geometry" />
        </mxCell>
        <mxCell id="sAEdU9W-AbyJChdEUiqo-183" value="" style="rounded=0;whiteSpace=wrap;html=1;shadow=0;dashed=1;dashPattern=1 1;fontSize=11;strokeColor=#3399FF;fillColor=default;" vertex="1" parent="sAEdU9W-AbyJChdEUiqo-189">
          <mxGeometry width="206.25" height="60" as="geometry" />
        </mxCell>
        <mxCell id="sAEdU9W-AbyJChdEUiqo-170" value="" style="shape=image;verticalLabelPosition=bottom;labelBackgroundColor=default;verticalAlign=top;aspect=fixed;imageAspect=0;image=data:image/png,iVBORw0KGgoAAAANSUhEUgAAAgYAAAPUCAQAAAB8tzm7AAAABGdBTUEAALGPC/xhBQAAACBjSFJNAAB6JgAAgIQAAPoAAACA6AAAdTAAAOpgAAA6mAAAF3CculE8AAAAAmJLR0QA/4ePzL8AAAAJcEhZcwAAAGAAAABgAPBrQs8AAAAHdElNRQflAxoMEDCXWDYjAAAcbElEQVR42u3deZTud13Y8fczCYQESAIKipCAsq8VkMWFIopaQwBRQRTB1qrF09bqUY9H2qqtcvQcPe61aFEERUGsLHFfcQFlMYgBZBMJAdQqJsGQEEny6x/3m5u7zL135plnnt+dmdfrHyazPZ/vcOc939+z/H6LqXn9w3Rpl3VF7+2Kru6qbujDM08E63BuZ3Z+53VB9+iCHtxDu/Ni3okWc8XgPdNv9zu9vvfPu344bdytR/R5fX73nCkKM8TgzdOLe3nvnme9cNq7Z1/UM3ro2pOw1hj84/TT/VxvXfcaYQ+6f8/sa7rTGpOwthi8a/rxnt+161sZ7Hln9bS+pYesKQhricFbp//eK5r7rkrYm57Y96wlCLseg/dM39kvdNPurwT2rY2e1v/s3rschF2NwcemH+y7+ujurgAOhFv19T232+1iEHYxBr89/afetXuTw4Fzj360J+5aDjZ259teN/2X6d9IAazUe3tST5uu3KW/4LuyM3jd9Kzeuas/FDi4Luxne9wu7A9WvjOYph+YPksKYNe8r8f33dO08r/jK94ZXDP9+35pbT8UOLie0M91h5XuD1Yag/dMT/L8QliTe/eq7rfCHKwwBn85XdQHZviRwEF1h17ZY1aWg5XdZ/A702OkANbqyj6vl67s7/mKYvCL00XOQwBrd31f0fNXlIOVxOCl07O6Yc6fCBxYN/V1/fhKcrCCGPzi9JVSALOZ+oZ+dAU52PEdiC+ZnuFlSDCzRc/r63Z4V+IOY/B70xO6fu6fA9BGL+mpO8rBjmLw+ulzu2bunwFQ1a27pM/fQQ52EIO/nh7Vh+ZeP3DYub2mBy2dg6Vj8M/TZ/SWudcOHOUevW7pU64v+WjCTdMzpABOO+/tS7p+yb/wS8bgOV0y96qBTfxJ37DkVy51mPDr08VObwqnrRf2rCUOFZaIwRXTw/rHuVcLnNBte30P2HYOtn2YcMP05VIAp7WP9LSu3fbf+W3H4Lt6zdwrBU7hrX3Ltr9mm4cJl06P7mNzrxM4pUW/1hdu61BhWzG4fnq4MxnBHnHXLtvWidG2dZjwHCmAPeMDfeO2Pn8bO4M/nx7VjXOvD9iGX+uiLe8NthyDm6bP6HVzrwzYlnt1WbfZYg62fJjwY1IAe867+94tf+4WdwYfmB7gHIewB53Vm7vvlvYGW9wZPEcKYE+6fsvPONjSzuBN06c5tRnsWb+1pZOebCkGj53+aO7VAEt7QG/uzFPmYAuHCS+XAtjT3tYLtvBZp9wZ3DR9apfNvRZgRz6pd3f2KfYGp9wZ/KIUwJ73wf7PKT/nFDuDG6cH9o651wHs2Cf2151z0r3BKXYGLzoNUnC/ntpTu+/cY8Ce9nf9xCk+46Q7gxun+/euWRfwgJ53+JLTfzg9u7fPOg3sZZ/Qe0/61OST7gxeMXMKPrs3HHH1+ccu3thjZp0H9rK/74Un/fhJdwaPml4/4+gX9pedd0zHrpoe3PtnnAn2snv3V51xwr3BSXYGfzhrCupHjktBnb/4oVlngr3sXb38JB89yc7gidOvzjj2vXpHG5s07Kbp3r1nxrlgL3tUf7b9ncHfTL8+69BfumkKamPxpbPOBXvZ63rjCf/+nzAG/3vmlyZ91hIfAU7lxA8wniAG100/M/PId1/iI8CpvKQPnWBvcObm737p7Bdbv/0JP3LezJPN45wu7h4tfbXtmUxd3q/2kbnH4AjX9bN986YfOUEMnj/3xCc5mcpBPM3KE3pBd9prJRj+afqak96Hzbo9/wQx2PQw4V3Ta+eet8tP+JH3zT3a2l3cq/ZsCuqOi//bl8w9BEd4e3+26YHCpjF40WlwjeXXLPGR/enje9EJHlnZKxaLF/SJcw/BETZ/JuImMbhpetHcs1Yv66ZNizRNvzz3aGv2nG1dFef0dPvFc+YegSO8pI9u8tu1SQxefVpsxP+6V2z6/lfN/HqJdTurZ809wko8o7PmHoHDruqVm7x3kxi8dO5Jh2/s6uPqdc30TXOPtWaP7OP2/L6g6o6LR849AkfY7Lf8uBjcMJ0u9/xe0ZOOucb8R6en9Ddzj7Vmnzb3AFayL/1m1xz3p/a4GLy6f5h7zsP+qE/rjw6P/Nrpkf3u3COt3f65423/rGQ/uK7jX3l03PMMXjb3lEf5qx7bfaeHVJcd0BOb3G7uAaxkn3pZTz/mPcfE4MbT5iDhFu84DU69Np/98xSrq+cegKP8Rh+ZbnvU/VHHHCa8/jQ6SKDqirkHWJnT4TEqbnFdv3fMe46JwbwvW+Z4855gxkr2s1875r+PObnJQ6e/mHtCjrLRe7tgHzy4ePn0Ka7XeZr5pN7f4oh/W0ftDD4wvXnu+TjGTf3U3COsxE9KwWnngx39+35UDH7zNHhNAsf6wS7f8/+3XD79yNwjsImj7xY4Kga/t61vxHpc2xf3z3s6Bx+entK1cw/BJn7/qP86IgbT9Oq5Z2NTl/boXrtnc/Ca6dG9ae4h2NRru/6If1dH3IH4tumBc8/GSdyr+3X23ENs03W9vXfPPQQn8eoee/guxCOedPT7y3wv1ubdfq1YuT/osYffPuIw4dVzzwWs2R8c8fYRhwl3nT4492TAWp3d1d1qHCgc3hlcLgVw4FzXXx5++3AM/nTuqYAZ3PKbfzgGr5t7JmAGt/zmiwEcaH92+K1xB+KN07meIwYH0KJ/6vxFHd4ZvFMK4ECaumy8NWLg1YpwUN382y8GcMCJAVAdF4O3zT0PMJO3NU01YnDdtH9Ouwlsz0f6QDVi8C6npIID7J3ViME7554FmNGhK5OIARx4R+wMnDQDDrIjYvDeuWcBZnR5NWLgwldwkB0qwGJqms7u+rmnAWZ0VectNurvpQAOuPdVGw4SgCuqjXLuQzjoPlht1D/MPQcws39IDIDEABj+X2IAdHhn8KG55wBmNmJw9dxzADP7cLVR18w9BzCza6qN+ue55wBm9s+JAVBd142TwwSgqWvauHHyMiXgI218bO4ZgNPADW3cMPcMwGngY2IAlJ0BMIgBUNXH2nAtJaBuvPnCq8BBJwZAJQbAIAZAJQbAcOYyX3RuHz/33MAJXNvfLfV1S8Xg6f3kYu4FA5u7ZHrSUl/nMAGoxAAYxACoxAAYxACoxAAYxACoxAAYxACoxAAYxACoxAAYxACoxAAYxACoxAAYxACoxAAYxACoxAAYxACoxAAYxACoxAAYxACoxAAYxACoxAAYxACoxAAYxACoxAAYxACoxAAYxACoxAAYxACoxAAYxACoxAAYxACoxAAYxACoxAAYxACoxAAYxACoxAAYxACoxAAYxACoxAAYxACoxAAYxACoxAAYxACoxAAYxACoxAAYxACoxAAYxACoxAAYxACoxAAYxACoxAAYxACoxAAYxACoxAAYxACoxAAYxACoxAAYxACoxAAYxACoxAAYxACoxAAYxACoxAAYxACoxAAYxACoxAAYxACoxAAYxACoxAAYxACoxAAYxACoxAAYxACoxAAYxACoxAAYxACoxAAYxACoxAAYxACoxAAYxACoxAAYxACoxAAYxACoxAAYxACoxAAYxACoxAAYxACoxAAYxACoxAAYxACoxAAYxACoxAAYxACoxAAYxACoxAAYxACoxAAYxACoxAAYxACoxAAYxACoxAAYxACoxAAYxACoxAAYxACoxAAYxACoxAAYxACoxAAYxACoxAAYxACoxAAYxACoxAAYxACoxAAYxACoxAAYxACoxAAYxACoxAAYxACoxAAYxACoxAAYxACoxAAYxACoxAAYxACoxAAYxACoxAAYxACoxAAYxACoxAAYxACoxAAYxACoxAAYxACoxAAYxACoxAAYxACoxAAYxACoxAAYxACoxAAYxACoxAAYxACoxAAYxACoxAAYxACoxAAYxACoxAAYxACoxAAYxACoxAAYxACoxAAYxACoxAAYxACoxAAYxACoxAAYxACoxAAYxACoxAAYxACoxAAYxACoxAAYxACoxAAYxACoxAAYxACoxAAYxACoxAAYxACoxAAYxACoxAAYxACoxAAYxACoxAAYxACoxAAYxACoxAAYxACoxAAYxACoxAAYxACoxAAYxACoxAAYxACoxAAYxACoxAAYxACoxAAYxACoxAAYxACoxAAYxACoxAAYxACoxAAYxACoxAAYxACoxAAYxACoxAAYxACoxAAYxACoxAAYxACoxAAYxACoxAAYxACoxAAYxACoxAAYxACoxAAYxACoxAAYxACoxAAYxACoxAAYxACoxAAYxACoxAAYxACoxAAYxACoxAAYxACoxAAYxACoxAAYxACoxAAYxACoxAAYxACoxAAYxACoxAAYxACoxAAYxACoxAAYxACoxAAYxACoxAAYxACoxAAYxACoxAAYxACoxAAYxACoxAAYxACoxAAYxACoxAAYxACoxAAYxACoxAAYxACoxAAYxACoxAAYxACoxAAYxACoxAAYxACoxAAYxACoxAAYxACoxAAYxACoxAAYxACoxAAYxACoxAAYxACoxAAYxACoxAAYxACoxAAYxACoxAAYxACoxAAYxACoxAAYxACoxAAYxACoxAAYxACoxAAYxACoxAAYxACoxAAYxACoxAAYxACoxAAYxACoxAAYxACoxAAYxACoxAAYxACoxAAYxACoxAAYxACoxAAYxACoxAAYxACoxAAYxACoxAAYxACoxAAYxACoxAAYxACoxAAYxACoxAAYxACoxAAYxACoxAAYxACoxAAYxACoxAAYxACoxAAYxACoxAAYxACoxAAYxACoxAAYxACoxAAYxACoxAAYxACoxAAYxACoxAAYxACoxAAYxACoxAAYxACoxAAYxACoxAAYxACoxAAYxACoxAAYxACoxAAYxACoxAAYxACoxAAYxACoxAAYxACoxAAYxACoxAAYxACoxAAYxACoxAAYxACoxAAYxACoxAAYxACoxAAYxACoxAAYxACoxAAYxACoxAAYxACoxAAYxACoxAAYxACoxAAYxACoxAAYxACoxAAYxACoxAAYxACoxAAYxACoxAAYxACoxAAYxACoxAAYxACoxAAYxACoxAAYxACoxAAYxACoxAAYxACoxAAYxACoxAAYxACoxAAYxACoxAAYxACoxAAYxACoxAAYxACoxAAYxACoxAAYxACoxAAYxACoxAAYxACoxAAYxACoxAAYxACoxAAYxACoxAAYxACoxAAYxACoxAAYxACoxAAYxACoxAAYxACoxAAYxACoxAAYxACoxAAYxACoxAAYxACoxAAYxACoxAAYxACoxAAYxACoxAAYxACoxAAYxACoxAAYxACoxAAYxACoxAAYxACoxAAYxACoxAAYxACoxAAYxACoxAAYxACoxAAYxACoxAAYxACoxAAYxACoxAAYxACoxAAYxACoxAAYxACoxAAYxACoxAAYxACoxAAYxACoxAAYxACoxAAYxACoxAAYxACoxAAYxACoxAAYxACoxAAYxACoxAAYxACoxAAYxACoxAAYxACoxAAYxACoxAAYxACoxAAYxACoxAAYxACoxAAYxACoxAAYxACoxAAYxACoxAAYxACoxAAYxACoxAAYxACoxAAYxACoxAAYxACoxAAYxACoxAAYxACoxAAYxACoxAAYxACoxAAYxACoxAAYxACoxAAYxACoxAAYxACoxAAYxACoxAAYxACoxAAYxACoxAAYxACoxAAYxACoxAAYxACoxAAYxACoxAAYxACoxAAYxACoxAAYxACoxAAYxACoxAAYxACoxAAYxACoxAAYxACoxAAYxACoxAAYxACoxAAYxACoxAAYxACoxAAYxACoxAAYxACoxAAYxACoxAAYxACoxAAYxACoxAAYxACoxAAYxACoxAAYxACoxAAYxACoxAAYxACoxAAYxACoxAAYxACoxAAYxACoxAAYxACoxAAYxACoxAAYxACoxAAYxACoxAAYxACoxAAYxACoxAAYxACoxAAYxACoxAAYxACoxAAYxACoxAAYxACoxAAYxACoxAAYxACoxAAYxACoxAAYxACo6sxlvug9vWyae3Bgc3++5NctPjDdde7Zgdm90WECcIgYAJUYAIMYAJUYAIMYAJUYAIMYAJUYAIMYAJUYAIMYAJUYAMOGGgB1RhtLndAA2GduJQZA1ZliAJQYAMOt2rjV3DMAp4Ez2zhjcdbcUwCzu20bdbu5pwBmtuh2bdTt554DmNnZnbEQA6Dbl8ME4FAFNuq8uecAZnZetVF3mnsOYGZ3qs4Ug4PtnM7vDk1d1ZVdN/cwzEYMDrAH9eQe0cO6YHHL+943XdobelVvmXs41k4MDqTz+vq+qvstjv/IhYsL+6Ke219NL+x5XT33oKzRnXKfwQFz+76ny/vexWYpuMX9F9+3uLzndu7c47I2d6426i5zz8GaXNxb+q+L8xZb+dzzFs9ZvL1nzj0ya/JJ1UZdOPccrMFte3GXLC7cUghudpfFixa/0G3nHp01uKBaTE3TOX107lnYVffsV3rItkJwi7dMX9y75l4Au+yqzlts1GJxwdyTsKvu3x8vnYJ60OLPesTcS2BXndd5i3F2ZAcK+9nD+uPusnQKqu64+K0eOfcy2EWHtgNisM99Sr/Zx+0oBVV3WPxG9517Keyau1cjBveeexZ2ybm9sjvtOAVVd1z8hgeh9637VCMG95l7FnbFohf3oJWkoOqTFy9xzZ196tB2QAz2sa/v4pWloOpzFt8895LYFYcOARdTdd10u26aex5W7L5d2jkrjUFdPz2qN8+9MFbuiu5286MJZy/chbj//PjKU1BnLX6ilX9TZnbb7lodvvDqA+eehxX7oh6/K7+1n7H4irmXxoo9qMWiDsfgX809Dyt1Zt+/a9/7+7rN3MtjpR4y/lcM9qWnd69d283fbfHv5l4eK/Wp43/FYB9a9G27+v2/NRfl209u/u0fMbiX16btI1+wwmcXbOaTF1869xJZmUUPHm+NGJyxsDfYP756H9wC63Kvzh1/Og4/pezRc8/EipzXxbt+G5+bV7ruF59++C0x2He+rLN3/akAG4tnzL1MVuRRh98Sg31n9/cF67sVdt8tO4PFdPjNu00fmHsuduzWfajbreFJgjdOd+6f5l4sO3ZOV3fmsfcZHFkI9q7HrCUFdcbi8XMvlRV4xOEUHBWDz557Llbgs9Z2S58591JZgccd8fYRMficuediBR62tlt6+NxLZQWOjMER9xnUXacPzj0bO/T+7rqmlxVeO53XDXMvlx05p3/qrM0OExwo7H13WFsK6pzFPedeLjv0GUek4JgYfO7cs7FDd9/Ht8bqHX3XwFEx+EInrtjj1vvr6ZQ4e90Tjvqvo2Jwl8VD556OHVnvk4TFYG+74PBLlA455nS3F809Hztyx7Xe2vlzL5cduXic4ehmx8TgCdv5Xpx2zl7rrXnZ+9527G/7MTF4ZJ8w94TsgBiwVecc9RyDOi4GG4unzD0jO3DWWm/NuRD3souOO3v2cZfIeercM7ID16/11q6be7nswNOOe89xMXisA4U97Np9fGus0jmbPFhwXAzOcKCwh633b7UY7F0XddvjnlS0yZU0v2zuOVnaes8wcOXcy2VpT9vkfZvE4LF9ytyTsqQr1npr75t7uSzpjj1pk/duEoOF89vtWev99RSDverLj3qB0s02NvvUr/IahT3q8n18a6zOszZ976YxuOfCWWz2piu7Ytr5d9maa6e/nnu5LOUBPXLTv/Ybm3/61849L0v687Xd0puc2mSPOtFv9wli8GXdee6JWcqla7ul9WWHVTr7BAcJJ4zBWa60u0e9Zm239Nq5l8pSvrw7nuAuwcWJDjHfN31KN849N9t26/6x26/lugmf0IfmXixLeGMPP8G/j40TfcmFCy9n3ov+pT9Yy+28QQr2pEefMAUniUF9y9xzs5Rf3Ue3wqqd7Ld6cbJHoj5zcly495zX3+76pVen6Z79zdwLZdvu2Ts6Y5mdgb3B3nR1l+z6bfy+FOxJ33aSFJwiBk/uvnNPzxJ+Ztdv4QVzL5ElfGLPPOnHTxqDjcVz5p6fJfxWb9rV5yFeMb1s7iWyhG/tNic9fNw4+Zc/o/vPvQKW8AO7+t2/v3+Ze4Fs2yf27FN8xilicMbiO+ZeA0v4pd65a3uDv51+eu7lsYRvP+6ch8faONW3eFoPmXsVbNsNu3jn77c7w9Ee9ElbeL3RKWOwsfjuudfBEi7pt3dlb/D66efmXhpL+B9beLh5sZV/MZ8zredZbazSfbp0k/Pc7czHpkev8aVQrMpDuvSkDyoecsqdQdUPbe3TOK28cxcOFb5TCvakH9hCCra4M6ivnjyyvPcsemVPXOHe4I+nx3nx2h50cZds6V/BFmPwt9P9+vDca2Lbzuu1PWBFOfib6dP7+7kXxLad1Zu775b+DWxx/3+XxffMvSaWcHVP6O9Xckfih6cnS8Ge9G1bTMGWdwZ14/To3jj3uljCp/Y7ffwOdwdXTRf1p3MvhCXcq8tO8bzDW2z5nsEzFs/rjLlXxhL+osf0wR3tDq6cvkAK9qgf3nIKthGDevjim+ZeGUt5e4/pzUvn4G3Tp/f6uZfAUr6yJ2xjT7jlw4Sqj04P721zr4+lnNNP9pVLHCy8dPqarpl7eJZyty7r/G38f76tJxDcZvHz3WruFbKUa3tmT5wu39b+4G+nZ01Pl4I9atFPbSsF24xBPXTx7XOvkaX9ag/uudNVWwrC1dP3TvfLU4/3rmf3hdvcCW7rMKHqhulx/cnc62QHzu3ZfdVJn33wtulFPa+r5x6UHXhQrzvlqxSPte0Y1Punh/aPc6+VHXpgT+4RPawLj/gHc/l0aW/oVb117uHYodv2hu6/7XuIlohB/cZ0cTfNvV5W4uzO7w7VlV3VdXMPw4q8sGctcWfxUjGo/zY9d+71Apv62n5qqSeZLRmDafqynAcPTj+f1e921jpjUNdMn9lfzr1u4Cj36HXdecknny99ooLbLV7pSs1wWjm3S5ZOwQ5iUPdY/E7nz716YLh1v9yDdvCStB2dwughi1/pNnP/BIBqo5/v83b06tQdns/scYsXeS0jzG7R/+qpO3yh+o5PbvjUxS905tw/CTjQFv1Qz97xGa2WfjThSC+bvqIb5v55wAG16Ef6zys4ud1KYlAvm57Rx2b+kcBBtNFP9B9Wcp7LFcWgfn/6Yi9tgTU7q5/t6Ss65e3KYlCXTRf1/pl+JHAQ3aFX9K9XdjL8FV4d5cGLP3FdRlibe/YnK0zBSmNQd1+8rn+75h8IHEwX9YaVXRPjkBVfN+02ixcsfshDjbCrNvrOLukOK76S5grvM7jFG6Zn9o61/FDg4LmgF/a4FYegVr4zOOQRizf1bS7WCrvgqf3FrqRgl3YGh/zu9B975659dzh4LuhHesquhKB2aWdwyOMXb+mHu93u3QAcILfqG3rrLqZgV3cGh1w+fWc/70LesAOLvrTv3vIFVJe+ld2OQdXbp+/ol1vHLcH+c1Hf00N3OQS1phhUvXv6sX66j6zp1mA/uHVP7pt71BpCUGuMQdWV08/0ImdOhC24b8/sa3dwErPtW2sMDrlsenEv9zgDnMA9enLP6BFrzMAhM8TgkPdOv93v9voun+n24XRz1z6tx/f53WftGThkthjc7EPTpb2ly3tf7+vKPtzHvBCaA+H23arzO7cLu3sX9sAe1ifMFIGb/X/fzcwZ6p6VZQAAACV0RVh0ZGF0ZTpjcmVhdGUAMjAyMS0wMy0yNVQyMDowNzoxMiswMDowME4ABykAAAAldEVYdGRhdGU6bW9kaWZ5ADIwMTYtMDQtMTZUMDc6NDA6MTArMDA6MDBFimfyAAAAAElFTkSuQmCC;" vertex="1" parent="sAEdU9W-AbyJChdEUiqo-189">
          <mxGeometry x="44.9625" y="15.51529411764723" width="12.364181341326338" height="23.393031097789436" as="geometry" />
        </mxCell>
        <mxCell id="sAEdU9W-AbyJChdEUiqo-171" value="" style="shape=image;verticalLabelPosition=bottom;labelBackgroundColor=default;verticalAlign=top;aspect=fixed;imageAspect=0;image=data:image/png,iVBORw0KGgoAAAANSUhEUgAAAgYAAAPUCAQAAAB8tzm7AAAABGdBTUEAALGPC/xhBQAAACBjSFJNAAB6JgAAgIQAAPoAAACA6AAAdTAAAOpgAAA6mAAAF3CculE8AAAAAmJLR0QA/4ePzL8AAAAJcEhZcwAAAGAAAABgAPBrQs8AAAAHdElNRQflAxoMEDCXWDYjAAAcbElEQVR42u3deZTud13Y8fczCYQESAIKipCAsq8VkMWFIopaQwBRQRTB1qrF09bqUY9H2qqtcvQcPe61aFEERUGsLHFfcQFlMYgBZBMJAdQqJsGQEEny6x/3m5u7zL135plnnt+dmdfrHyazPZ/vcOc939+z/H6LqXn9w3Rpl3VF7+2Kru6qbujDM08E63BuZ3Z+53VB9+iCHtxDu/Ni3okWc8XgPdNv9zu9vvfPu344bdytR/R5fX73nCkKM8TgzdOLe3nvnme9cNq7Z1/UM3ro2pOw1hj84/TT/VxvXfcaYQ+6f8/sa7rTGpOwthi8a/rxnt+161sZ7Hln9bS+pYesKQhricFbp//eK5r7rkrYm57Y96wlCLseg/dM39kvdNPurwT2rY2e1v/s3rschF2NwcemH+y7+ujurgAOhFv19T232+1iEHYxBr89/afetXuTw4Fzj360J+5aDjZ259teN/2X6d9IAazUe3tST5uu3KW/4LuyM3jd9Kzeuas/FDi4Luxne9wu7A9WvjOYph+YPksKYNe8r8f33dO08r/jK94ZXDP9+35pbT8UOLie0M91h5XuD1Yag/dMT/L8QliTe/eq7rfCHKwwBn85XdQHZviRwEF1h17ZY1aWg5XdZ/A702OkANbqyj6vl67s7/mKYvCL00XOQwBrd31f0fNXlIOVxOCl07O6Yc6fCBxYN/V1/fhKcrCCGPzi9JVSALOZ+oZ+dAU52PEdiC+ZnuFlSDCzRc/r63Z4V+IOY/B70xO6fu6fA9BGL+mpO8rBjmLw+ulzu2bunwFQ1a27pM/fQQ52EIO/nh7Vh+ZeP3DYub2mBy2dg6Vj8M/TZ/SWudcOHOUevW7pU64v+WjCTdMzpABOO+/tS7p+yb/wS8bgOV0y96qBTfxJ37DkVy51mPDr08VObwqnrRf2rCUOFZaIwRXTw/rHuVcLnNBte30P2HYOtn2YcMP05VIAp7WP9LSu3fbf+W3H4Lt6zdwrBU7hrX3Ltr9mm4cJl06P7mNzrxM4pUW/1hdu61BhWzG4fnq4MxnBHnHXLtvWidG2dZjwHCmAPeMDfeO2Pn8bO4M/nx7VjXOvD9iGX+uiLe8NthyDm6bP6HVzrwzYlnt1WbfZYg62fJjwY1IAe867+94tf+4WdwYfmB7gHIewB53Vm7vvlvYGW9wZPEcKYE+6fsvPONjSzuBN06c5tRnsWb+1pZOebCkGj53+aO7VAEt7QG/uzFPmYAuHCS+XAtjT3tYLtvBZp9wZ3DR9apfNvRZgRz6pd3f2KfYGp9wZ/KIUwJ73wf7PKT/nFDuDG6cH9o651wHs2Cf2151z0r3BKXYGLzoNUnC/ntpTu+/cY8Ce9nf9xCk+46Q7gxun+/euWRfwgJ53+JLTfzg9u7fPOg3sZZ/Qe0/61OST7gxeMXMKPrs3HHH1+ccu3thjZp0H9rK/74Un/fhJdwaPml4/4+gX9pedd0zHrpoe3PtnnAn2snv3V51xwr3BSXYGfzhrCupHjktBnb/4oVlngr3sXb38JB89yc7gidOvzjj2vXpHG5s07Kbp3r1nxrlgL3tUf7b9ncHfTL8+69BfumkKamPxpbPOBXvZ63rjCf/+nzAG/3vmlyZ91hIfAU7lxA8wniAG100/M/PId1/iI8CpvKQPnWBvcObm737p7Bdbv/0JP3LezJPN45wu7h4tfbXtmUxd3q/2kbnH4AjX9bN986YfOUEMnj/3xCc5mcpBPM3KE3pBd9prJRj+afqak96Hzbo9/wQx2PQw4V3Ta+eet8tP+JH3zT3a2l3cq/ZsCuqOi//bl8w9BEd4e3+26YHCpjF40WlwjeXXLPGR/enje9EJHlnZKxaLF/SJcw/BETZ/JuImMbhpetHcs1Yv66ZNizRNvzz3aGv2nG1dFef0dPvFc+YegSO8pI9u8tu1SQxefVpsxP+6V2z6/lfN/HqJdTurZ809wko8o7PmHoHDruqVm7x3kxi8dO5Jh2/s6uPqdc30TXOPtWaP7OP2/L6g6o6LR849AkfY7Lf8uBjcMJ0u9/xe0ZOOucb8R6en9Ddzj7Vmnzb3AFayL/1m1xz3p/a4GLy6f5h7zsP+qE/rjw6P/Nrpkf3u3COt3f65423/rGQ/uK7jX3l03PMMXjb3lEf5qx7bfaeHVJcd0BOb3G7uAaxkn3pZTz/mPcfE4MbT5iDhFu84DU69Np/98xSrq+cegKP8Rh+ZbnvU/VHHHCa8/jQ6SKDqirkHWJnT4TEqbnFdv3fMe46JwbwvW+Z4855gxkr2s1875r+PObnJQ6e/mHtCjrLRe7tgHzy4ePn0Ka7XeZr5pN7f4oh/W0ftDD4wvXnu+TjGTf3U3COsxE9KwWnngx39+35UDH7zNHhNAsf6wS7f8/+3XD79yNwjsImj7xY4Kga/t61vxHpc2xf3z3s6Bx+entK1cw/BJn7/qP86IgbT9Oq5Z2NTl/boXrtnc/Ca6dG9ae4h2NRru/6If1dH3IH4tumBc8/GSdyr+3X23ENs03W9vXfPPQQn8eoee/guxCOedPT7y3wv1ubdfq1YuT/osYffPuIw4dVzzwWs2R8c8fYRhwl3nT4492TAWp3d1d1qHCgc3hlcLgVw4FzXXx5++3AM/nTuqYAZ3PKbfzgGr5t7JmAGt/zmiwEcaH92+K1xB+KN07meIwYH0KJ/6vxFHd4ZvFMK4ECaumy8NWLg1YpwUN382y8GcMCJAVAdF4O3zT0PMJO3NU01YnDdtH9Ouwlsz0f6QDVi8C6npIID7J3ViME7554FmNGhK5OIARx4R+wMnDQDDrIjYvDeuWcBZnR5NWLgwldwkB0qwGJqms7u+rmnAWZ0VectNurvpQAOuPdVGw4SgCuqjXLuQzjoPlht1D/MPQcws39IDIDEABj+X2IAdHhn8KG55wBmNmJw9dxzADP7cLVR18w9BzCza6qN+ue55wBm9s+JAVBd142TwwSgqWvauHHyMiXgI218bO4ZgNPADW3cMPcMwGngY2IAlJ0BMIgBUNXH2nAtJaBuvPnCq8BBJwZAJQbAIAZAJQbAcOYyX3RuHz/33MAJXNvfLfV1S8Xg6f3kYu4FA5u7ZHrSUl/nMAGoxAAYxACoxAAYxACoxAAYxACoxAAYxACoxAAYxACoxAAYxACoxAAYxACoxAAYxACoxAAYxACoxAAYxACoxAAYxACoxAAYxACoxAAYxACoxAAYxACoxAAYxACoxAAYxACoxAAYxACoxAAYxACoxAAYxACoxAAYxACoxAAYxACoxAAYxACoxAAYxACoxAAYxACoxAAYxACoxAAYxACoxAAYxACoxAAYxACoxAAYxACoxAAYxACoxAAYxACoxAAYxACoxAAYxACoxAAYxACoxAAYxACoxAAYxACoxAAYxACoxAAYxACoxAAYxACoxAAYxACoxAAYxACoxAAYxACoxAAYxACoxAAYxACoxAAYxACoxAAYxACoxAAYxACoxAAYxACoxAAYxACoxAAYxACoxAAYxACoxAAYxACoxAAYxACoxAAYxACoxAAYxACoxAAYxACoxAAYxACoxAAYxACoxAAYxACoxAAYxACoxAAYxACoxAAYxACoxAAYxACoxAAYxACoxAAYxACoxAAYxACoxAAYxACoxAAYxACoxAAYxACoxAAYxACoxAAYxACoxAAYxACoxAAYxACoxAAYxACoxAAYxACoxAAYxACoxAAYxACoxAAYxACoxAAYxACoxAAYxACoxAAYxACoxAAYxACoxAAYxACoxAAYxACoxAAYxACoxAAYxACoxAAYxACoxAAYxACoxAAYxACoxAAYxACoxAAYxACoxAAYxACoxAAYxACoxAAYxACoxAAYxACoxAAYxACoxAAYxACoxAAYxACoxAAYxACoxAAYxACoxAAYxACoxAAYxACoxAAYxACoxAAYxACoxAAYxACoxAAYxACoxAAYxACoxAAYxACoxAAYxACoxAAYxACoxAAYxACoxAAYxACoxAAYxACoxAAYxACoxAAYxACoxAAYxACoxAAYxACoxAAYxACoxAAYxACoxAAYxACoxAAYxACoxAAYxACoxAAYxACoxAAYxACoxAAYxACoxAAYxACoxAAYxACoxAAYxACoxAAYxACoxAAYxACoxAAYxACoxAAYxACoxAAYxACoxAAYxACoxAAYxACoxAAYxACoxAAYxACoxAAYxACoxAAYxACoxAAYxACoxAAYxACoxAAYxACoxAAYxACoxAAYxACoxAAYxACoxAAYxACoxAAYxACoxAAYxACoxAAYxACoxAAYxACoxAAYxACoxAAYxACoxAAYxACoxAAYxACoxAAYxACoxAAYxACoxAAYxACoxAAYxACoxAAYxACoxAAYxACoxAAYxACoxAAYxACoxAAYxACoxAAYxACoxAAYxACoxAAYxACoxAAYxACoxAAYxACoxAAYxACoxAAYxACoxAAYxACoxAAYxACoxAAYxACoxAAYxACoxAAYxACoxAAYxACoxAAYxACoxAAYxACoxAAYxACoxAAYxACoxAAYxACoxAAYxACoxAAYxACoxAAYxACoxAAYxACoxAAYxACoxAAYxACoxAAYxACoxAAYxACoxAAYxACoxAAYxACoxAAYxACoxAAYxACoxAAYxACoxAAYxACoxAAYxACoxAAYxACoxAAYxACoxAAYxACoxAAYxACoxAAYxACoxAAYxACoxAAYxACoxAAYxACoxAAYxACoxAAYxACoxAAYxACoxAAYxACoxAAYxACoxAAYxACoxAAYxACoxAAYxACoxAAYxACoxAAYxACoxAAYxACoxAAYxACoxAAYxACoxAAYxACoxAAYxACoxAAYxACoxAAYxACoxAAYxACoxAAYxACoxAAYxACoxAAYxACoxAAYxACoxAAYxACoxAAYxACoxAAYxACoxAAYxACoxAAYxACoxAAYxACoxAAYxACoxAAYxACoxAAYxACoxAAYxACoxAAYxACoxAAYxACoxAAYxACoxAAYxACoxAAYxACoxAAYxACoxAAYxACoxAAYxACoxAAYxACoxAAYxACoxAAYxACoxAAYxACoxAAYxACoxAAYxACoxAAYxACoxAAYxACoxAAYxACoxAAYxACoxAAYxACoxAAYxACoxAAYxACoxAAYxACoxAAYxACoxAAYxACoxAAYxACoxAAYxACoxAAYxACoxAAYxACoxAAYxACoxAAYxACoxAAYxACoxAAYxACoxAAYxACoxAAYxACoxAAYxACoxAAYxACoxAAYxACoxAAYxACoxAAYxACoxAAYxACoxAAYxACoxAAYxACoxAAYxACoxAAYxACoxAAYxACoxAAYxACoxAAYxACoxAAYxACoxAAYxACoxAAYxACoxAAYxACoxAAYxACoxAAYxACoxAAYxACoxAAYxACoxAAYxACoxAAYxACoxAAYxACoxAAYxACoxAAYxACoxAAYxACoxAAYxACoxAAYxACoxAAYxACoxAAYxACoxAAYxACoxAAYxACoxAAYxACoxAAYxACoxAAYxACoxAAYxACoxAAYxACoxAAYxACoxAAYxACoxAAYxACoxAAYxACoxAAYxACoxAAYxACoxAAYxACoxAAYxACoxAAYxACoxAAYxACoxAAYxACoxAAYxACoxAAYxACoxAAYxACoxAAYxACoxAAYxACoxAAYxACoxAAYxACoxAAYxACoxAAYxACoxAAYxACoxAAYxACoxAAYxACoxAAYxACoxAAYxACoxAAYxACoxAAYxACoxAAYxACoxAAYxACoxAAYxACoxAAYxACoxAAYxACoxAAYxACoxAAYxACoxAAYxACoxAAYxACoxAAYxACoxAAYxACoxAAYxACoxAAYxACoxAAYxACoxAAYxACoxAAYxACoxAAYxACoxAAYxACoxAAYxACoxAAYxACoxAAYxACoxAAYxACoxAAYxACoxAAYxACoxAAYxACoxAAYxACoxAAYxACoxAAYxACoxAAYxACoxAAYxACoxAAYxACo6sxlvug9vWyae3Bgc3++5NctPjDdde7Zgdm90WECcIgYAJUYAIMYAJUYAIMYAJUYAIMYAJUYAIMYAJUYAIMYAJUYAMOGGgB1RhtLndAA2GduJQZA1ZliAJQYAMOt2rjV3DMAp4Ez2zhjcdbcUwCzu20bdbu5pwBmtuh2bdTt554DmNnZnbEQA6Dbl8ME4FAFNuq8uecAZnZetVF3mnsOYGZ3qs4Ug4PtnM7vDk1d1ZVdN/cwzEYMDrAH9eQe0cO6YHHL+943XdobelVvmXs41k4MDqTz+vq+qvstjv/IhYsL+6Ke219NL+x5XT33oKzRnXKfwQFz+76ny/vexWYpuMX9F9+3uLzndu7c47I2d6426i5zz8GaXNxb+q+L8xZb+dzzFs9ZvL1nzj0ya/JJ1UZdOPccrMFte3GXLC7cUghudpfFixa/0G3nHp01uKBaTE3TOX107lnYVffsV3rItkJwi7dMX9y75l4Au+yqzlts1GJxwdyTsKvu3x8vnYJ60OLPesTcS2BXndd5i3F2ZAcK+9nD+uPusnQKqu64+K0eOfcy2EWHtgNisM99Sr/Zx+0oBVV3WPxG9517Keyau1cjBveeexZ2ybm9sjvtOAVVd1z8hgeh9637VCMG95l7FnbFohf3oJWkoOqTFy9xzZ196tB2QAz2sa/v4pWloOpzFt8895LYFYcOARdTdd10u26aex5W7L5d2jkrjUFdPz2qN8+9MFbuiu5286MJZy/chbj//PjKU1BnLX6ilX9TZnbb7lodvvDqA+eehxX7oh6/K7+1n7H4irmXxoo9qMWiDsfgX809Dyt1Zt+/a9/7+7rN3MtjpR4y/lcM9qWnd69d283fbfHv5l4eK/Wp43/FYB9a9G27+v2/NRfl209u/u0fMbiX16btI1+wwmcXbOaTF1869xJZmUUPHm+NGJyxsDfYP756H9wC63Kvzh1/Og4/pezRc8/EipzXxbt+G5+bV7ruF59++C0x2He+rLN3/akAG4tnzL1MVuRRh98Sg31n9/cF67sVdt8tO4PFdPjNu00fmHsuduzWfajbreFJgjdOd+6f5l4sO3ZOV3fmsfcZHFkI9q7HrCUFdcbi8XMvlRV4xOEUHBWDz557Llbgs9Z2S58591JZgccd8fYRMficuediBR62tlt6+NxLZQWOjMER9xnUXacPzj0bO/T+7rqmlxVeO53XDXMvlx05p3/qrM0OExwo7H13WFsK6pzFPedeLjv0GUek4JgYfO7cs7FDd9/Ht8bqHX3XwFEx+EInrtjj1vvr6ZQ4e90Tjvqvo2Jwl8VD556OHVnvk4TFYG+74PBLlA455nS3F809Hztyx7Xe2vlzL5cduXic4ehmx8TgCdv5Xpx2zl7rrXnZ+9527G/7MTF4ZJ8w94TsgBiwVecc9RyDOi4GG4unzD0jO3DWWm/NuRD3souOO3v2cZfIeercM7ID16/11q6be7nswNOOe89xMXisA4U97Np9fGus0jmbPFhwXAzOcKCwh633b7UY7F0XddvjnlS0yZU0v2zuOVnaes8wcOXcy2VpT9vkfZvE4LF9ytyTsqQr1npr75t7uSzpjj1pk/duEoOF89vtWev99RSDverLj3qB0s02NvvUr/IahT3q8n18a6zOszZ976YxuOfCWWz2piu7Ytr5d9maa6e/nnu5LOUBPXLTv/Ybm3/61849L0v687Xd0puc2mSPOtFv9wli8GXdee6JWcqla7ul9WWHVTr7BAcJJ4zBWa60u0e9Zm239Nq5l8pSvrw7nuAuwcWJDjHfN31KN849N9t26/6x26/lugmf0IfmXixLeGMPP8G/j40TfcmFCy9n3ov+pT9Yy+28QQr2pEefMAUniUF9y9xzs5Rf3Ue3wqqd7Ld6cbJHoj5zcly495zX3+76pVen6Z79zdwLZdvu2Ts6Y5mdgb3B3nR1l+z6bfy+FOxJ33aSFJwiBk/uvnNPzxJ+Ztdv4QVzL5ElfGLPPOnHTxqDjcVz5p6fJfxWb9rV5yFeMb1s7iWyhG/tNic9fNw4+Zc/o/vPvQKW8AO7+t2/v3+Ze4Fs2yf27FN8xilicMbiO+ZeA0v4pd65a3uDv51+eu7lsYRvP+6ch8faONW3eFoPmXsVbNsNu3jn77c7w9Ee9ElbeL3RKWOwsfjuudfBEi7pt3dlb/D66efmXhpL+B9beLh5sZV/MZ8zredZbazSfbp0k/Pc7czHpkev8aVQrMpDuvSkDyoecsqdQdUPbe3TOK28cxcOFb5TCvakH9hCCra4M6ivnjyyvPcsemVPXOHe4I+nx3nx2h50cZds6V/BFmPwt9P9+vDca2Lbzuu1PWBFOfib6dP7+7kXxLad1Zu775b+DWxx/3+XxffMvSaWcHVP6O9Xckfih6cnS8Ge9G1bTMGWdwZ14/To3jj3uljCp/Y7ffwOdwdXTRf1p3MvhCXcq8tO8bzDW2z5nsEzFs/rjLlXxhL+osf0wR3tDq6cvkAK9qgf3nIKthGDevjim+ZeGUt5e4/pzUvn4G3Tp/f6uZfAUr6yJ2xjT7jlw4Sqj04P721zr4+lnNNP9pVLHCy8dPqarpl7eJZyty7r/G38f76tJxDcZvHz3WruFbKUa3tmT5wu39b+4G+nZ01Pl4I9atFPbSsF24xBPXTx7XOvkaX9ag/uudNVWwrC1dP3TvfLU4/3rmf3hdvcCW7rMKHqhulx/cnc62QHzu3ZfdVJn33wtulFPa+r5x6UHXhQrzvlqxSPte0Y1Punh/aPc6+VHXpgT+4RPawLj/gHc/l0aW/oVb117uHYodv2hu6/7XuIlohB/cZ0cTfNvV5W4uzO7w7VlV3VdXMPw4q8sGctcWfxUjGo/zY9d+71Apv62n5qqSeZLRmDafqynAcPTj+f1e921jpjUNdMn9lfzr1u4Cj36HXdecknny99ooLbLV7pSs1wWjm3S5ZOwQ5iUPdY/E7nz716YLh1v9yDdvCStB2dwughi1/pNnP/BIBqo5/v83b06tQdns/scYsXeS0jzG7R/+qpO3yh+o5PbvjUxS905tw/CTjQFv1Qz97xGa2WfjThSC+bvqIb5v55wAG16Ef6zys4ud1KYlAvm57Rx2b+kcBBtNFP9B9Wcp7LFcWgfn/6Yi9tgTU7q5/t6Ss65e3KYlCXTRf1/pl+JHAQ3aFX9K9XdjL8FV4d5cGLP3FdRlibe/YnK0zBSmNQd1+8rn+75h8IHEwX9YaVXRPjkBVfN+02ixcsfshDjbCrNvrOLukOK76S5grvM7jFG6Zn9o61/FDg4LmgF/a4FYegVr4zOOQRizf1bS7WCrvgqf3FrqRgl3YGh/zu9B975659dzh4LuhHesquhKB2aWdwyOMXb+mHu93u3QAcILfqG3rrLqZgV3cGh1w+fWc/70LesAOLvrTv3vIFVJe+ld2OQdXbp+/ol1vHLcH+c1Hf00N3OQS1phhUvXv6sX66j6zp1mA/uHVP7pt71BpCUGuMQdWV08/0ImdOhC24b8/sa3dwErPtW2sMDrlsenEv9zgDnMA9enLP6BFrzMAhM8TgkPdOv93v9voun+n24XRz1z6tx/f53WftGThkthjc7EPTpb2ly3tf7+vKPtzHvBCaA+H23arzO7cLu3sX9sAe1ifMFIGb/X/fzcwZ6p6VZQAAACV0RVh0ZGF0ZTpjcmVhdGUAMjAyMS0wMy0yNVQyMDowNzoxMiswMDowME4ABykAAAAldEVYdGRhdGU6bW9kaWZ5ADIwMTYtMDQtMTZUMDc6NDA6MTArMDA6MDBFimfyAAAAAElFTkSuQmCC;rotation=-90;" vertex="1" parent="sAEdU9W-AbyJChdEUiqo-189">
          <mxGeometry x="94.40474999999995" y="14.760000000000058" width="13.068939677781941" height="24.722180591982017" as="geometry" />
        </mxCell>
        <mxCell id="sAEdU9W-AbyJChdEUiqo-172" value="" style="shape=image;verticalLabelPosition=bottom;labelBackgroundColor=default;verticalAlign=top;aspect=fixed;imageAspect=0;image=data:image/png,iVBORw0KGgoAAAANSUhEUgAAANgAAADpCAMAAABx2AnXAAAAmVBMVEX///8AAAAREiTa2ttbW1uqqqrR0dEdHR3h4eFTU1Oenp4ODyIAABoAABcAABQLDCCTk5O0tLQ+Pj66urqUlJpBQUwnKDZ9foVubnewsLARERH5+fk1NTXGxsaBgYHr6+tsbGwXGCkAAB2fn6aGho57e4IAAA5mZ29aWmOVlZUNDQ06PEc0M0BKSlQjJTOpqa9NUFlgYGmNjJbnqtqfAAAEC0lEQVR4nO3bjXKiOgCG4Qa2bk8TSG1DSOtaC4QfV0Dh/i/uoHjazpkddYEJynzPjB0oxeYtEBw73t0BAAAAAAAAAAAAAAAAAAAAAAAAAAAAAADANC3vjVma7PpBDPphruvRZBchj8bCjB4wk4ds2mGvMwNeRwizTfwmG2GDQFhvCBsGwnpD2DAQ1hvChoGw3hA2DIT1hrBhIKw3hA0DYb0hbBgI6w1hw0BYbwgbBsJ6Q9gwENYbwoaBsN4QNgyE9YawYSCsN4QNA2G9IWwYCOsNYcNAWG8IGwbCekPYMKYd9tOIEcLMufqwt7dJhj3bi4X9PL2wX+2uvyYXdvyo5XJyYYt218XkwlbtrqvJhd23u95PLqw9ZF0O2LWHkfVstu60o7mw907j6+zdWNjqt8mu3ytjYXeL938uc2rAFz7F+8Jc18UeToU9jD26Hp5OhT2NPboeTp+KY4+uuzN3LYOTwsDmp8PmY4+vs4/TYR9jj6+z012EjD2+rmbnwmZjj7Cjk5P93q1O+Gff4Hgee4TdnHzZ0brNFx9nJvu925zwz0z2ex9jj7GLxQVvj75d4yv3L/b68Q/Ozol7T3/ac23k/x0XeLkk4W+8jF10hDCEjV10dMEN6+9cy+1t8TCw674JAAAAAAAAAAAAAAAAAAAAAAAAAAAAAAAAGGdP1NlPl9+qO2uiEHZrjmG8edDjt+jnRsYsyj/XmiXKvjZeuTaMb7hFZXBYpnlw3OZkmSs3/5UFBadllt9KWRsWphVzasd1LMclOuCuy7hL7rfbrYqISwjnhOQzQjba42eecFxff/Y2jJa1W/qx0MQXyhe5EHER7ewdIWqVCXsmPdsulp4tPaNHjPLmWrBocznQ/TXBebtG9wH7JXq4PHjIKGUWZ81KwAP6PcxyRZAq5SiVEqJDYRGlssSb2b4Sckaq7XJD5MpmnJvs4rtdHJYsCDxHMp5pb8OkEwQ+paF0ZBgEpas2US58T+d6p0Sl8+ZLlHwPY1WmM5GmscdczaPESXXBEhLa/rqYk83LMknkw6w0ex7SMtbxtgl6TVW63ekiilWqvWWW6CxWcR1pz2dRVahtrEVKReYXuyxX7HsY5ds4qLmUgpZVpSpLZLswUmJ/+tlqGYt57C0LOzEa1pxHqVZF7UV+5YtNKkSdau3NlRRFndWZyGov05WodSriSHi7uKqbGYJ+D7OYKpnUMZe1SlKS6jLP+W7tO25WhKJyk+aUVERtTB8yi3k8lzL0mLQKV/JNkstS5txzPRbIoAiCjZsHrpfkgZeVzU9xeRzi5w26uUNRhx0ezAqd/ZXJXKf5wqkbNpvd5kJmpqdEur97tpPE54O264clfphTDqu0uf4Pk4v1v7CpQditmWzYv70TeXv4xjRiAAAAAElFTkSuQmCC;" vertex="1" parent="sAEdU9W-AbyJChdEUiqo-189">
          <mxGeometry x="124.57499999999999" y="1.2282352941176533" width="47.29299363057325" height="51.01461221431247" as="geometry" />
        </mxCell>
        <mxCell id="sAEdU9W-AbyJChdEUiqo-173" value="" style="rounded=0;whiteSpace=wrap;html=1;shadow=0;fontSize=11;strokeColor=none;fillColor=default;" vertex="1" parent="sAEdU9W-AbyJChdEUiqo-189">
          <mxGeometry x="106.63125" y="46.8988235294118" width="98.99999999999999" height="12.578823529411764" as="geometry" />
        </mxCell>
        <mxCell id="sAEdU9W-AbyJChdEUiqo-190" value="" style="group" vertex="1" connectable="0" parent="1">
          <mxGeometry x="120" y="1370" width="130.76" height="120" as="geometry" />
        </mxCell>
        <mxCell id="sAEdU9W-AbyJChdEUiqo-177" value="页面&lt;br&gt;schema" style="ellipse;whiteSpace=wrap;html=1;aspect=fixed;shadow=0;dashed=1;dashPattern=1 1;fontSize=11;strokeColor=#6c8ebf;fillColor=#dae8fc;" vertex="1" parent="sAEdU9W-AbyJChdEUiqo-190">
          <mxGeometry x="35.846978193146406" width="64" height="64" as="geometry" />
        </mxCell>
        <mxCell id="sAEdU9W-AbyJChdEUiqo-178" value="插件&lt;br&gt;schema" style="ellipse;whiteSpace=wrap;html=1;aspect=fixed;shadow=0;dashed=1;dashPattern=1 1;fontSize=11;strokeColor=#6c8ebf;fillColor=#dae8fc;" vertex="1" parent="sAEdU9W-AbyJChdEUiqo-190">
          <mxGeometry y="60" width="60" height="60" as="geometry" />
        </mxCell>
        <mxCell id="sAEdU9W-AbyJChdEUiqo-179" value="组件&lt;br&gt;&amp;nbsp;schema" style="ellipse;whiteSpace=wrap;html=1;aspect=fixed;shadow=0;dashed=1;dashPattern=1 1;fontSize=11;strokeColor=#6c8ebf;fillColor=#dae8fc;" vertex="1" parent="sAEdU9W-AbyJChdEUiqo-190">
          <mxGeometry x="69.65719626168223" y="60" width="60" height="60" as="geometry" />
        </mxCell>
        <mxCell id="sAEdU9W-AbyJChdEUiqo-191" value="插件" style="text;html=1;strokeColor=none;fillColor=none;align=center;verticalAlign=middle;whiteSpace=wrap;rounded=0;shadow=0;dashed=1;dashPattern=1 1;fontSize=9;" vertex="1" parent="1">
          <mxGeometry x="293.5" y="1274" width="60" height="30" as="geometry" />
        </mxCell>
        <mxCell id="sAEdU9W-AbyJChdEUiqo-193" value="组件" style="text;html=1;strokeColor=none;fillColor=none;align=center;verticalAlign=middle;whiteSpace=wrap;rounded=0;shadow=0;dashed=1;dashPattern=1 1;fontSize=9;" vertex="1" parent="1">
          <mxGeometry x="432.25" y="1274" width="60" height="30" as="geometry" />
        </mxCell>
        <mxCell id="sAEdU9W-AbyJChdEUiqo-196" value="页面（page schema）" style="text;html=1;strokeColor=none;fillColor=none;align=center;verticalAlign=middle;whiteSpace=wrap;rounded=0;shadow=0;dashed=1;dashPattern=1 1;fontSize=9;" vertex="1" parent="1">
          <mxGeometry x="366" y="951" width="150" height="30" as="geometry" />
        </mxCell>
        <mxCell id="sAEdU9W-AbyJChdEUiqo-211" value="数据代理&lt;br&gt;（mysql, redis, es, kafka ..）" style="rounded=0;whiteSpace=wrap;html=1;shadow=0;dashed=1;dashPattern=1 1;fontSize=9;" vertex="1" parent="1">
          <mxGeometry x="418.25" y="1737.5" width="121.75" height="55" as="geometry" />
        </mxCell>
        <mxCell id="sAEdU9W-AbyJChdEUiqo-217" style="edgeStyle=orthogonalEdgeStyle;rounded=0;orthogonalLoop=1;jettySize=auto;html=1;exitX=1;exitY=0.5;exitDx=0;exitDy=0;fontSize=9;fontColor=#FFFFFF;fillColor=#dae8fc;strokeColor=#6c8ebf;" edge="1" parent="1" source="sAEdU9W-AbyJChdEUiqo-212" target="sAEdU9W-AbyJChdEUiqo-211">
          <mxGeometry relative="1" as="geometry" />
        </mxCell>
        <mxCell id="sAEdU9W-AbyJChdEUiqo-220" style="edgeStyle=orthogonalEdgeStyle;rounded=0;orthogonalLoop=1;jettySize=auto;html=1;exitX=0.5;exitY=0;exitDx=0;exitDy=0;entryX=0.5;entryY=1;entryDx=0;entryDy=0;fontSize=9;fontColor=#FFFFFF;" edge="1" parent="1" source="sAEdU9W-AbyJChdEUiqo-212" target="sAEdU9W-AbyJChdEUiqo-219">
          <mxGeometry relative="1" as="geometry" />
        </mxCell>
        <mxCell id="sAEdU9W-AbyJChdEUiqo-212" value="执行服务" style="rounded=0;whiteSpace=wrap;html=1;shadow=0;dashed=1;dashPattern=1 1;fontSize=9;strokeColor=#6c8ebf;fillColor=#dae8fc;" vertex="1" parent="1">
          <mxGeometry x="230" y="1735" width="120" height="60" as="geometry" />
        </mxCell>
        <mxCell id="sAEdU9W-AbyJChdEUiqo-218" value="" style="shape=curlyBracket;whiteSpace=wrap;html=1;rounded=1;flipH=1;shadow=0;dashed=1;dashPattern=1 1;fontSize=9;strokeColor=#6c8ebf;fillColor=#dae8fc;" vertex="1" parent="1">
          <mxGeometry x="210" y="1690" width="20" height="150" as="geometry" />
        </mxCell>
        <mxCell id="sAEdU9W-AbyJChdEUiqo-219" value="平台" style="rounded=0;whiteSpace=wrap;html=1;shadow=0;dashed=1;dashPattern=1 1;fontSize=9;" vertex="1" parent="1">
          <mxGeometry x="230" y="1640" width="120" height="30" as="geometry" />
        </mxCell>
        <mxCell id="sAEdU9W-AbyJChdEUiqo-221" value="注册服务调用方式" style="text;html=1;strokeColor=none;fillColor=none;align=center;verticalAlign=middle;whiteSpace=wrap;rounded=0;shadow=0;dashed=1;dashPattern=1 1;fontSize=9;fontColor=#000000;" vertex="1" parent="1">
          <mxGeometry x="300" y="1690" width="60" height="30" as="geometry" />
        </mxCell>
        <mxCell id="sAEdU9W-AbyJChdEUiqo-222" value="接口标准" style="text;html=1;strokeColor=none;fillColor=none;align=center;verticalAlign=middle;whiteSpace=wrap;rounded=0;shadow=0;dashed=1;dashPattern=1 1;fontSize=9;fontColor=#000000;" vertex="1" parent="1">
          <mxGeometry x="110" y="1650" width="60" height="30" as="geometry" />
        </mxCell>
        <mxCell id="sAEdU9W-AbyJChdEUiqo-223" value="标准协议" style="text;html=1;strokeColor=none;fillColor=none;align=center;verticalAlign=middle;whiteSpace=wrap;rounded=0;shadow=0;dashed=1;dashPattern=1 1;fontSize=9;fontColor=#000000;" vertex="1" parent="1">
          <mxGeometry x="353.5" y="1765" width="60" height="30" as="geometry" />
        </mxCell>
        <mxCell id="sAEdU9W-AbyJChdEUiqo-233" value="调试" style="text;html=1;strokeColor=none;fillColor=none;align=center;verticalAlign=middle;whiteSpace=wrap;rounded=0;shadow=0;dashed=1;dashPattern=1 1;fontSize=9;fontColor=#000000;" vertex="1" parent="1">
          <mxGeometry x="904" y="1930" width="60" height="30" as="geometry" />
        </mxCell>
        <mxCell id="sAEdU9W-AbyJChdEUiqo-236" value="" style="group" vertex="1" connectable="0" parent="1">
          <mxGeometry x="80" y="1960" width="900" height="90" as="geometry" />
        </mxCell>
        <mxCell id="sAEdU9W-AbyJChdEUiqo-237" style="edgeStyle=orthogonalEdgeStyle;rounded=0;orthogonalLoop=1;jettySize=auto;html=1;exitX=1;exitY=0.5;exitDx=0;exitDy=0;fontSize=9;fontColor=#000000;" edge="1" parent="sAEdU9W-AbyJChdEUiqo-236" source="sAEdU9W-AbyJChdEUiqo-224" target="sAEdU9W-AbyJChdEUiqo-227">
          <mxGeometry relative="1" as="geometry" />
        </mxCell>
        <mxCell id="sAEdU9W-AbyJChdEUiqo-224" value="协议制定" style="rounded=0;whiteSpace=wrap;html=1;shadow=0;dashed=1;dashPattern=1 1;fontSize=9;strokeColor=#6c8ebf;fillColor=#dae8fc;" vertex="1" parent="sAEdU9W-AbyJChdEUiqo-236">
          <mxGeometry y="30" width="95.1923076923077" height="60" as="geometry" />
        </mxCell>
        <mxCell id="sAEdU9W-AbyJChdEUiqo-239" style="edgeStyle=orthogonalEdgeStyle;rounded=0;orthogonalLoop=1;jettySize=auto;html=1;exitX=1;exitY=0.5;exitDx=0;exitDy=0;fontSize=9;fontColor=#000000;" edge="1" parent="sAEdU9W-AbyJChdEUiqo-236" source="sAEdU9W-AbyJChdEUiqo-225" target="sAEdU9W-AbyJChdEUiqo-226">
          <mxGeometry relative="1" as="geometry" />
        </mxCell>
        <mxCell id="sAEdU9W-AbyJChdEUiqo-225" value="tenc创建服务" style="rounded=0;whiteSpace=wrap;html=1;shadow=0;dashed=1;dashPattern=1 1;fontSize=9;strokeColor=#6c8ebf;fillColor=#dae8fc;" vertex="1" parent="sAEdU9W-AbyJChdEUiqo-236">
          <mxGeometry x="222.40384615384616" y="30" width="95.1923076923077" height="60" as="geometry" />
        </mxCell>
        <mxCell id="sAEdU9W-AbyJChdEUiqo-240" style="edgeStyle=orthogonalEdgeStyle;rounded=0;orthogonalLoop=1;jettySize=auto;html=1;exitX=1;exitY=0.5;exitDx=0;exitDy=0;entryX=0;entryY=0.5;entryDx=0;entryDy=0;fontSize=9;fontColor=#000000;" edge="1" parent="sAEdU9W-AbyJChdEUiqo-236" source="sAEdU9W-AbyJChdEUiqo-226" target="sAEdU9W-AbyJChdEUiqo-228">
          <mxGeometry relative="1" as="geometry" />
        </mxCell>
        <mxCell id="sAEdU9W-AbyJChdEUiqo-226" value="框架脚手架搭建" style="rounded=0;whiteSpace=wrap;html=1;shadow=0;dashed=1;dashPattern=1 1;fontSize=9;strokeColor=#6c8ebf;fillColor=#dae8fc;" vertex="1" parent="sAEdU9W-AbyJChdEUiqo-236">
          <mxGeometry x="340.09615384615387" y="30" width="95.1923076923077" height="60" as="geometry" />
        </mxCell>
        <mxCell id="sAEdU9W-AbyJChdEUiqo-238" style="edgeStyle=orthogonalEdgeStyle;rounded=0;orthogonalLoop=1;jettySize=auto;html=1;exitX=1;exitY=0.5;exitDx=0;exitDy=0;fontSize=9;fontColor=#000000;" edge="1" parent="sAEdU9W-AbyJChdEUiqo-236" source="sAEdU9W-AbyJChdEUiqo-227" target="sAEdU9W-AbyJChdEUiqo-225">
          <mxGeometry relative="1" as="geometry" />
        </mxCell>
        <mxCell id="sAEdU9W-AbyJChdEUiqo-227" value="桩代码生成" style="rounded=0;whiteSpace=wrap;html=1;shadow=0;dashed=1;dashPattern=1 1;fontSize=9;strokeColor=#6c8ebf;fillColor=#dae8fc;" vertex="1" parent="sAEdU9W-AbyJChdEUiqo-236">
          <mxGeometry x="110.98557692307692" y="30" width="95.1923076923077" height="60" as="geometry" />
        </mxCell>
        <mxCell id="sAEdU9W-AbyJChdEUiqo-241" style="edgeStyle=orthogonalEdgeStyle;rounded=0;orthogonalLoop=1;jettySize=auto;html=1;exitX=1;exitY=0.5;exitDx=0;exitDy=0;fontSize=9;fontColor=#000000;" edge="1" parent="sAEdU9W-AbyJChdEUiqo-236" source="sAEdU9W-AbyJChdEUiqo-228" target="sAEdU9W-AbyJChdEUiqo-229">
          <mxGeometry relative="1" as="geometry" />
        </mxCell>
        <mxCell id="sAEdU9W-AbyJChdEUiqo-228" value="db数据源配置与连接" style="rounded=0;whiteSpace=wrap;html=1;shadow=0;dashed=1;dashPattern=1 1;fontSize=9;strokeColor=#6c8ebf;fillColor=#dae8fc;" vertex="1" parent="sAEdU9W-AbyJChdEUiqo-236">
          <mxGeometry x="458.6538461538462" y="30" width="95.1923076923077" height="60" as="geometry" />
        </mxCell>
        <mxCell id="sAEdU9W-AbyJChdEUiqo-242" style="edgeStyle=orthogonalEdgeStyle;rounded=0;orthogonalLoop=1;jettySize=auto;html=1;exitX=1;exitY=0.5;exitDx=0;exitDy=0;fontSize=9;fontColor=#000000;" edge="1" parent="sAEdU9W-AbyJChdEUiqo-236" source="sAEdU9W-AbyJChdEUiqo-229" target="sAEdU9W-AbyJChdEUiqo-230">
          <mxGeometry relative="1" as="geometry" />
        </mxCell>
        <mxCell id="sAEdU9W-AbyJChdEUiqo-229" value="代码开发" style="rounded=0;whiteSpace=wrap;html=1;shadow=0;dashed=1;dashPattern=1 1;fontSize=9;strokeColor=#82b366;fillColor=#d5e8d4;" vertex="1" parent="sAEdU9W-AbyJChdEUiqo-236">
          <mxGeometry x="576.7788461538462" y="30" width="95.1923076923077" height="60" as="geometry" />
        </mxCell>
        <mxCell id="sAEdU9W-AbyJChdEUiqo-243" style="edgeStyle=orthogonalEdgeStyle;rounded=0;orthogonalLoop=1;jettySize=auto;html=1;exitX=1;exitY=0.5;exitDx=0;exitDy=0;fontSize=9;fontColor=#000000;" edge="1" parent="sAEdU9W-AbyJChdEUiqo-236" source="sAEdU9W-AbyJChdEUiqo-230" target="sAEdU9W-AbyJChdEUiqo-231">
          <mxGeometry relative="1" as="geometry" />
        </mxCell>
        <mxCell id="sAEdU9W-AbyJChdEUiqo-230" value="接口监控告警" style="rounded=0;whiteSpace=wrap;html=1;shadow=0;dashed=1;dashPattern=1 1;fontSize=9;strokeColor=#6c8ebf;fillColor=#dae8fc;" vertex="1" parent="sAEdU9W-AbyJChdEUiqo-236">
          <mxGeometry x="692.3076923076924" y="30" width="95.1923076923077" height="60" as="geometry" />
        </mxCell>
        <mxCell id="sAEdU9W-AbyJChdEUiqo-231" value="发布测试" style="rounded=0;whiteSpace=wrap;html=1;shadow=0;dashed=1;dashPattern=1 1;fontSize=9;strokeColor=#6c8ebf;fillColor=#dae8fc;" vertex="1" parent="sAEdU9W-AbyJChdEUiqo-236">
          <mxGeometry x="804.8076923076924" y="30" width="95.1923076923077" height="60" as="geometry" />
        </mxCell>
        <mxCell id="sAEdU9W-AbyJChdEUiqo-232" value="" style="curved=1;endArrow=classic;html=1;rounded=0;fontSize=9;fontColor=#000000;" edge="1" parent="sAEdU9W-AbyJChdEUiqo-236">
          <mxGeometry width="50" height="50" relative="1" as="geometry">
            <mxPoint x="826.4423076923077" y="20" as="sourcePoint" />
            <mxPoint x="878.3653846153846" y="20" as="targetPoint" />
            <Array as="points">
              <mxPoint x="830.7692307692308" />
              <mxPoint x="874.0384615384615" />
            </Array>
          </mxGeometry>
        </mxCell>
        <mxCell id="sAEdU9W-AbyJChdEUiqo-244" value="任务中心" style="ellipse;whiteSpace=wrap;html=1;aspect=fixed;shadow=0;dashed=1;dashPattern=1 1;fontSize=9;strokeColor=#6c8ebf;fillColor=#dae8fc;" vertex="1" parent="1">
          <mxGeometry x="640" y="1650" width="90" height="90" as="geometry" />
        </mxCell>
        <mxCell id="sAEdU9W-AbyJChdEUiqo-246" value="商城" style="ellipse;whiteSpace=wrap;html=1;aspect=fixed;shadow=0;dashed=1;dashPattern=1 1;fontSize=9;strokeColor=#6c8ebf;fillColor=#dae8fc;" vertex="1" parent="1">
          <mxGeometry x="827" y="1650" width="60" height="60" as="geometry" />
        </mxCell>
        <mxCell id="sAEdU9W-AbyJChdEUiqo-247" value="管理端" style="ellipse;whiteSpace=wrap;html=1;aspect=fixed;shadow=0;dashed=1;dashPattern=1 1;fontSize=9;strokeColor=#6c8ebf;fillColor=#dae8fc;" vertex="1" parent="1">
          <mxGeometry x="653" y="1751.5" width="107" height="107" as="geometry" />
        </mxCell>
        <mxCell id="sAEdU9W-AbyJChdEUiqo-248" value="其他&lt;br&gt;运营服务" style="ellipse;whiteSpace=wrap;html=1;aspect=fixed;shadow=0;dashed=1;dashPattern=1 1;fontSize=9;strokeColor=#6c8ebf;fillColor=#dae8fc;" vertex="1" parent="1">
          <mxGeometry x="790" y="1780" width="80" height="80" as="geometry" />
        </mxCell>
        <mxCell id="sAEdU9W-AbyJChdEUiqo-250" value="广告服务" style="ellipse;whiteSpace=wrap;html=1;aspect=fixed;shadow=0;dashed=1;dashPattern=1 1;fontSize=9;strokeColor=#6c8ebf;fillColor=#dae8fc;" vertex="1" parent="1">
          <mxGeometry x="730" y="1600" width="70" height="70" as="geometry" />
        </mxCell>
        <mxCell id="sAEdU9W-AbyJChdEUiqo-251" value="角色交易" style="ellipse;whiteSpace=wrap;html=1;aspect=fixed;shadow=0;dashed=1;dashPattern=1 1;fontSize=9;strokeColor=#6c8ebf;fillColor=#dae8fc;" vertex="1" parent="1">
          <mxGeometry x="759.5" y="1697" width="57" height="57" as="geometry" />
        </mxCell>
        <mxCell id="sAEdU9W-AbyJChdEUiqo-252" value="函数平台" style="rounded=0;whiteSpace=wrap;html=1;shadow=0;dashed=1;dashPattern=1 1;fontSize=9;strokeColor=#82b366;fillColor=#d5e8d4;" vertex="1" parent="1">
          <mxGeometry x="100" y="2150" width="120" height="70" as="geometry" />
        </mxCell>
        <mxCell id="sAEdU9W-AbyJChdEUiqo-253" value="" style="shape=singleArrow;direction=north;whiteSpace=wrap;html=1;shadow=0;dashed=1;dashPattern=1 1;fontSize=9;strokeColor=#82b366;fillColor=#d5e8d4;rotation=-90;" vertex="1" parent="1">
          <mxGeometry x="47.5" y="2162.5" width="30" height="45" as="geometry" />
        </mxCell>
        <mxCell id="sAEdU9W-AbyJChdEUiqo-254" value="痛点" style="text;html=1;strokeColor=none;fillColor=none;align=center;verticalAlign=middle;whiteSpace=wrap;rounded=0;shadow=0;dashed=1;dashPattern=1 1;fontSize=9;fontColor=#000000;" vertex="1" parent="1">
          <mxGeometry x="37" y="2190" width="60" height="30" as="geometry" />
        </mxCell>
        <mxCell id="sAEdU9W-AbyJChdEUiqo-256" value="传统服务开发流程" style="text;html=1;strokeColor=none;fillColor=none;align=center;verticalAlign=middle;whiteSpace=wrap;rounded=0;shadow=0;dashed=1;dashPattern=1 1;fontSize=9;fontColor=#000000;" vertex="1" parent="1">
          <mxGeometry x="450" y="2060" width="121" height="30" as="geometry" />
        </mxCell>
        <mxCell id="sAEdU9W-AbyJChdEUiqo-257" value="解决" style="text;html=1;strokeColor=none;fillColor=none;align=center;verticalAlign=middle;whiteSpace=wrap;rounded=0;shadow=0;dashed=1;dashPattern=1 1;fontSize=9;fontColor=#000000;" vertex="1" parent="1">
          <mxGeometry x="37" y="2150" width="60" height="30" as="geometry" />
        </mxCell>
        <mxCell id="sAEdU9W-AbyJChdEUiqo-260" style="edgeStyle=orthogonalEdgeStyle;rounded=0;orthogonalLoop=1;jettySize=auto;html=1;exitX=0.5;exitY=1;exitDx=0;exitDy=0;fontSize=9;fontColor=#000000;" edge="1" parent="1" source="sAEdU9W-AbyJChdEUiqo-111" target="sAEdU9W-AbyJChdEUiqo-193">
          <mxGeometry relative="1" as="geometry" />
        </mxCell>
        <mxCell id="sAEdU9W-AbyJChdEUiqo-262" style="edgeStyle=orthogonalEdgeStyle;rounded=0;orthogonalLoop=1;jettySize=auto;html=1;exitX=0.5;exitY=1;exitDx=0;exitDy=0;fontSize=9;fontColor=#000000;" edge="1" parent="1" source="sAEdU9W-AbyJChdEUiqo-119" target="sAEdU9W-AbyJChdEUiqo-191">
          <mxGeometry relative="1" as="geometry" />
        </mxCell>
        <mxCell id="sAEdU9W-AbyJChdEUiqo-263" value="事件" style="text;html=1;strokeColor=none;fillColor=none;align=center;verticalAlign=middle;whiteSpace=wrap;rounded=0;shadow=0;dashed=1;dashPattern=1 1;fontSize=9;" vertex="1" parent="1">
          <mxGeometry x="653" y="1165.22" width="60" height="30" as="geometry" />
        </mxCell>
        <mxCell id="sAEdU9W-AbyJChdEUiqo-264" style="edgeStyle=orthogonalEdgeStyle;rounded=0;orthogonalLoop=1;jettySize=auto;html=1;exitX=1;exitY=0.5;exitDx=0;exitDy=0;entryX=0;entryY=0.5;entryDx=0;entryDy=0;fontSize=9;fontColor=#000000;" edge="1" parent="1" source="sAEdU9W-AbyJChdEUiqo-124" target="sAEdU9W-AbyJChdEUiqo-263">
          <mxGeometry relative="1" as="geometry" />
        </mxCell>
        <mxCell id="sAEdU9W-AbyJChdEUiqo-265" value="样式" style="text;html=1;strokeColor=none;fillColor=none;align=center;verticalAlign=middle;whiteSpace=wrap;rounded=0;shadow=0;dashed=1;dashPattern=1 1;fontSize=9;" vertex="1" parent="1">
          <mxGeometry x="655" y="1064" width="60" height="30" as="geometry" />
        </mxCell>
        <mxCell id="sAEdU9W-AbyJChdEUiqo-266" style="edgeStyle=orthogonalEdgeStyle;rounded=0;orthogonalLoop=1;jettySize=auto;html=1;exitX=1;exitY=0.5;exitDx=0;exitDy=0;fontSize=9;fontColor=#000000;" edge="1" parent="1" source="sAEdU9W-AbyJChdEUiqo-120" target="sAEdU9W-AbyJChdEUiqo-265">
          <mxGeometry relative="1" as="geometry" />
        </mxCell>
        <mxCell id="sAEdU9W-AbyJChdEUiqo-268" style="edgeStyle=orthogonalEdgeStyle;rounded=0;orthogonalLoop=1;jettySize=auto;html=1;exitX=0.75;exitY=1;exitDx=0;exitDy=0;entryX=0;entryY=0.5;entryDx=0;entryDy=0;fontSize=9;fontColor=#000000;" edge="1" parent="1" source="sAEdU9W-AbyJChdEUiqo-267" target="sAEdU9W-AbyJChdEUiqo-191">
          <mxGeometry relative="1" as="geometry" />
        </mxCell>
        <mxCell id="sAEdU9W-AbyJChdEUiqo-269" value="plugin schema" style="edgeLabel;html=1;align=center;verticalAlign=middle;resizable=0;points=[];fontSize=9;fontColor=#000000;" vertex="1" connectable="0" parent="sAEdU9W-AbyJChdEUiqo-268">
          <mxGeometry x="0.1523" relative="1" as="geometry">
            <mxPoint as="offset" />
          </mxGeometry>
        </mxCell>
        <mxCell id="sAEdU9W-AbyJChdEUiqo-270" style="edgeStyle=orthogonalEdgeStyle;rounded=0;orthogonalLoop=1;jettySize=auto;html=1;exitX=0.25;exitY=1;exitDx=0;exitDy=0;entryX=0.5;entryY=1;entryDx=0;entryDy=0;fontSize=9;fontColor=#000000;" edge="1" parent="1" source="sAEdU9W-AbyJChdEUiqo-267" target="sAEdU9W-AbyJChdEUiqo-193">
          <mxGeometry relative="1" as="geometry" />
        </mxCell>
        <mxCell id="sAEdU9W-AbyJChdEUiqo-271" value="component schema" style="edgeLabel;html=1;align=center;verticalAlign=middle;resizable=0;points=[];fontSize=9;fontColor=#000000;" vertex="1" connectable="0" parent="sAEdU9W-AbyJChdEUiqo-270">
          <mxGeometry x="0.0214" y="3" relative="1" as="geometry">
            <mxPoint as="offset" />
          </mxGeometry>
        </mxCell>
        <mxCell id="sAEdU9W-AbyJChdEUiqo-267" value="表单物料meta" style="rounded=0;whiteSpace=wrap;html=1;shadow=0;dashed=1;dashPattern=1 1;fontSize=9;strokeColor=#6c8ebf;fillColor=#dae8fc;" vertex="1" parent="1">
          <mxGeometry x="20" y="1121" width="110" height="60" as="geometry" />
        </mxCell>
        <mxCell id="sAEdU9W-AbyJChdEUiqo-272" value="代码功能限制（os, sync, io, database, runtime, net ..）" style="rounded=0;whiteSpace=wrap;html=1;shadow=0;dashed=1;dashPattern=1 1;fontSize=9;fontColor=#333333;strokeColor=#666666;fillColor=#f5f5f5;" vertex="1" parent="1">
          <mxGeometry x="817" y="810" width="183" height="50" as="geometry" />
        </mxCell>
        <mxCell id="sAEdU9W-AbyJChdEUiqo-273" value="&lt;div style=&quot;text-align: left&quot;&gt;&lt;span&gt;1.&amp;nbsp;&lt;/span&gt;&lt;/div&gt;代码功能限制（os, sync, io, database, runtime, net ..）&lt;div style=&quot;text-align: left&quot;&gt;&lt;span&gt;禁用协程，正则检测 \sgo&lt;/span&gt;&lt;/div&gt;" style="rounded=0;whiteSpace=wrap;html=1;shadow=0;dashed=1;dashPattern=1 1;fontSize=9;fontColor=#333333;strokeColor=#666666;fillColor=#f5f5f5;" vertex="1" parent="1">
          <mxGeometry x="817" y="857" width="183" height="63" as="geometry" />
        </mxCell>
        <mxCell id="sAEdU9W-AbyJChdEUiqo-274" value="&lt;div style=&quot;text-align: left&quot;&gt;recover 避免脚本奔溃&lt;/div&gt;" style="rounded=0;whiteSpace=wrap;html=1;shadow=0;dashed=1;dashPattern=1 1;fontSize=9;fontColor=#333333;strokeColor=#666666;fillColor=#f5f5f5;" vertex="1" parent="1">
          <mxGeometry x="816.5" y="931" width="183" height="50" as="geometry" />
        </mxCell>
        <mxCell id="sAEdU9W-AbyJChdEUiqo-276" value="1." style="text;html=1;strokeColor=none;fillColor=none;align=center;verticalAlign=middle;whiteSpace=wrap;rounded=0;shadow=0;dashed=1;dashPattern=1 1;fontSize=9;fontColor=#000000;" vertex="1" parent="1">
          <mxGeometry x="596" y="740" width="60" height="30" as="geometry" />
        </mxCell>
        <mxCell id="sAEdU9W-AbyJChdEUiqo-277" value="" style="group" vertex="1" connectable="0" parent="1">
          <mxGeometry x="80" y="1690" width="120" height="150" as="geometry" />
        </mxCell>
        <mxCell id="sAEdU9W-AbyJChdEUiqo-213" value="编译" style="rounded=0;whiteSpace=wrap;html=1;shadow=0;dashed=1;dashPattern=1 1;fontSize=9;strokeColor=#6c8ebf;fillColor=#dae8fc;" vertex="1" parent="sAEdU9W-AbyJChdEUiqo-277">
          <mxGeometry y="31.578947368421055" width="120" height="23.68421052631579" as="geometry" />
        </mxCell>
        <mxCell id="sAEdU9W-AbyJChdEUiqo-214" value="测试" style="rounded=0;whiteSpace=wrap;html=1;shadow=0;dashed=1;dashPattern=1 1;fontSize=9;strokeColor=#6c8ebf;fillColor=#dae8fc;" vertex="1" parent="sAEdU9W-AbyJChdEUiqo-277">
          <mxGeometry y="63.15789473684211" width="120" height="23.68421052631579" as="geometry" />
        </mxCell>
        <mxCell id="sAEdU9W-AbyJChdEUiqo-215" value="执行" style="rounded=0;whiteSpace=wrap;html=1;shadow=0;dashed=1;dashPattern=1 1;fontSize=9;strokeColor=#6c8ebf;fillColor=#dae8fc;" vertex="1" parent="sAEdU9W-AbyJChdEUiqo-277">
          <mxGeometry y="94.73684210526316" width="120" height="23.68421052631579" as="geometry" />
        </mxCell>
        <mxCell id="sAEdU9W-AbyJChdEUiqo-216" value="模板" style="rounded=0;whiteSpace=wrap;html=1;shadow=0;dashed=1;dashPattern=1 1;fontSize=9;strokeColor=#6c8ebf;fillColor=#dae8fc;" vertex="1" parent="sAEdU9W-AbyJChdEUiqo-277">
          <mxGeometry width="120" height="23.68421052631579" as="geometry" />
        </mxCell>
        <mxCell id="sAEdU9W-AbyJChdEUiqo-258" value="发布" style="rounded=0;whiteSpace=wrap;html=1;shadow=0;dashed=1;dashPattern=1 1;fontSize=9;strokeColor=#666666;fillColor=#f5f5f5;fontColor=#333333;" vertex="1" parent="sAEdU9W-AbyJChdEUiqo-277">
          <mxGeometry y="126.31578947368422" width="120" height="23.68421052631579" as="geometry" />
        </mxCell>
        <mxCell id="sAEdU9W-AbyJChdEUiqo-303" style="edgeStyle=orthogonalEdgeStyle;rounded=0;orthogonalLoop=1;jettySize=auto;html=1;exitX=0.5;exitY=1;exitDx=0;exitDy=0;entryX=0.5;entryY=0;entryDx=0;entryDy=0;fontSize=9;fontColor=#000000;" edge="1" parent="1" source="sAEdU9W-AbyJChdEUiqo-294" target="sAEdU9W-AbyJChdEUiqo-295">
          <mxGeometry relative="1" as="geometry" />
        </mxCell>
        <mxCell id="sAEdU9W-AbyJChdEUiqo-294" value="场景1" style="rounded=0;whiteSpace=wrap;html=1;shadow=0;fontSize=9;fontColor=#333333;strokeColor=#666666;fillColor=#f5f5f5;" vertex="1" parent="1">
          <mxGeometry x="128" y="2310" width="122" height="80" as="geometry" />
        </mxCell>
        <mxCell id="sAEdU9W-AbyJChdEUiqo-306" style="edgeStyle=orthogonalEdgeStyle;rounded=0;orthogonalLoop=1;jettySize=auto;html=1;exitX=0.5;exitY=1;exitDx=0;exitDy=0;fontSize=9;fontColor=#000000;" edge="1" parent="1" source="sAEdU9W-AbyJChdEUiqo-295" target="sAEdU9W-AbyJChdEUiqo-299">
          <mxGeometry relative="1" as="geometry" />
        </mxCell>
        <mxCell id="sAEdU9W-AbyJChdEUiqo-295" value="维度1" style="rounded=0;whiteSpace=wrap;html=1;shadow=0;fontSize=9;strokeColor=#6c8ebf;fillColor=#dae8fc;" vertex="1" parent="1">
          <mxGeometry x="127" y="2415" width="124.56" height="45" as="geometry" />
        </mxCell>
        <mxCell id="sAEdU9W-AbyJChdEUiqo-298" value="维度 N" style="rounded=0;whiteSpace=wrap;html=1;shadow=0;fontSize=9;strokeColor=#6c8ebf;fillColor=#dae8fc;" vertex="1" parent="1">
          <mxGeometry x="267.72" y="2415" width="124.56" height="45" as="geometry" />
        </mxCell>
        <mxCell id="sAEdU9W-AbyJChdEUiqo-299" value="函数1" style="rounded=0;whiteSpace=wrap;html=1;shadow=0;fontSize=9;strokeColor=#82b366;fillColor=#d5e8d4;" vertex="1" parent="1">
          <mxGeometry x="127" y="2510" width="124.56" height="30" as="geometry" />
        </mxCell>
        <mxCell id="sAEdU9W-AbyJChdEUiqo-300" value="&lt;span&gt;函数2&lt;/span&gt;" style="rounded=0;whiteSpace=wrap;html=1;shadow=0;fontSize=9;strokeColor=#82b366;fillColor=#d5e8d4;" vertex="1" parent="1">
          <mxGeometry x="261.22" y="2510" width="124.56" height="30" as="geometry" />
        </mxCell>
        <mxCell id="sAEdU9W-AbyJChdEUiqo-301" value="&lt;span&gt;函数3&lt;/span&gt;" style="rounded=0;whiteSpace=wrap;html=1;shadow=0;fontSize=9;strokeColor=#82b366;fillColor=#d5e8d4;" vertex="1" parent="1">
          <mxGeometry x="395.28000000000003" y="2510" width="124.56" height="30" as="geometry" />
        </mxCell>
        <mxCell id="sAEdU9W-AbyJChdEUiqo-302" value="&lt;span&gt;函数 N&lt;/span&gt;" style="rounded=0;whiteSpace=wrap;html=1;shadow=0;fontSize=9;strokeColor=#82b366;fillColor=#d5e8d4;" vertex="1" parent="1">
          <mxGeometry x="529.33" y="2510" width="124.56" height="30" as="geometry" />
        </mxCell>
        <mxCell id="sAEdU9W-AbyJChdEUiqo-305" value="" style="endArrow=classic;html=1;rounded=0;fontSize=9;fontColor=#000000;" edge="1" parent="1" source="sAEdU9W-AbyJChdEUiqo-294" target="sAEdU9W-AbyJChdEUiqo-298">
          <mxGeometry width="50" height="50" relative="1" as="geometry">
            <mxPoint x="250" y="2400" as="sourcePoint" />
            <mxPoint x="320.71067811865476" y="2350" as="targetPoint" />
          </mxGeometry>
        </mxCell>
        <mxCell id="sAEdU9W-AbyJChdEUiqo-307" value="" style="endArrow=classic;html=1;rounded=0;fontSize=9;fontColor=#000000;exitX=0.609;exitY=0.987;exitDx=0;exitDy=0;exitPerimeter=0;" edge="1" parent="1" source="sAEdU9W-AbyJChdEUiqo-295" target="sAEdU9W-AbyJChdEUiqo-300">
          <mxGeometry width="50" height="50" relative="1" as="geometry">
            <mxPoint x="400" y="2400" as="sourcePoint" />
            <mxPoint x="450" y="2350" as="targetPoint" />
          </mxGeometry>
        </mxCell>
        <mxCell id="sAEdU9W-AbyJChdEUiqo-308" value="" style="endArrow=classic;html=1;rounded=0;fontSize=9;fontColor=#000000;exitX=0.75;exitY=1;exitDx=0;exitDy=0;entryX=0.25;entryY=0;entryDx=0;entryDy=0;" edge="1" parent="1" source="sAEdU9W-AbyJChdEUiqo-295" target="sAEdU9W-AbyJChdEUiqo-301">
          <mxGeometry width="50" height="50" relative="1" as="geometry">
            <mxPoint x="216.84295999999995" y="2472.6099999999997" as="sourcePoint" />
            <mxPoint x="297.3384872907627" y="2506" as="targetPoint" />
          </mxGeometry>
        </mxCell>
        <mxCell id="sAEdU9W-AbyJChdEUiqo-309" value="" style="endArrow=classic;html=1;rounded=0;fontSize=9;fontColor=#000000;exitX=1;exitY=1;exitDx=0;exitDy=0;entryX=0.365;entryY=0.06;entryDx=0;entryDy=0;entryPerimeter=0;" edge="1" parent="1" source="sAEdU9W-AbyJChdEUiqo-295" target="sAEdU9W-AbyJChdEUiqo-302">
          <mxGeometry width="50" height="50" relative="1" as="geometry">
            <mxPoint x="230.42000000000007" y="2470" as="sourcePoint" />
            <mxPoint x="436.41999999999985" y="2506" as="targetPoint" />
          </mxGeometry>
        </mxCell>
      </root>
    </mxGraphModel>
  </diagram>
</mxfile>
